<?xml version="1.0" encoding="UTF-8"?>
<svg xmlns="http://www.w3.org/2000/svg" xmlns:xlink="http://www.w3.org/1999/xlink" width="500px" height="247px" viewBox="0 0 500 247" version="1.1">
<defs>
<clipPath id="clip1">
  <path d="M 124 0 L 247.535156 0 L 247.535156 123.96875 L 124 123.96875 Z M 124 0 "/>
</clipPath>
<clipPath id="clip2">
  <path d="M 250 2.132812 L 371.867188 2.132812 L 371.867188 123.96875 L 250 123.96875 Z M 250 2.132812 "/>
</clipPath>
<clipPath id="clip3">
  <path d="M 375.421875 0.355469 L 499 0.355469 L 499 124.855469 L 375.421875 124.855469 Z M 375.421875 0.355469 "/>
</clipPath>
<clipPath id="clip4">
  <path d="M 0.644531 127.523438 L 121.425781 127.523438 L 121.425781 247 L 0.644531 247 Z M 0.644531 127.523438 "/>
</clipPath>
<clipPath id="clip5">
  <path d="M 124.976562 127.523438 L 246.648438 127.523438 L 246.648438 247 L 124.976562 247 Z M 124.976562 127.523438 "/>
</clipPath>
<clipPath id="clip6">
  <path d="M 250.199219 127.523438 L 370.980469 127.523438 L 370.980469 247 L 250.199219 247 Z M 250.199219 127.523438 "/>
</clipPath>
<clipPath id="clip7">
  <path d="M 0.644531 1.246094 L 121.425781 1.246094 L 121.425781 123.078125 L 0.644531 123.078125 Z M 0.644531 1.246094 "/>
</clipPath>
<clipPath id="clip8">
  <path d="M 375.421875 127.523438 L 496.203125 127.523438 L 496.203125 247 L 375.421875 247 Z M 375.421875 127.523438 "/>
</clipPath>
<clipPath id="clip9">
  <path d="M 38.832031 23.476562 L 86.789062 23.476562 L 86.789062 103.515625 L 38.832031 103.515625 Z M 38.832031 23.476562 "/>
</clipPath>
<clipPath id="clip10">
  <path d="M 161.390625 44.820312 L 208.460938 44.820312 L 208.460938 96.398438 L 161.390625 96.398438 Z M 161.390625 44.820312 "/>
</clipPath>
<clipPath id="clip11">
  <path d="M 287.5 40.375 L 336.34375 40.375 L 336.34375 91.0625 L 287.5 91.0625 Z M 287.5 40.375 "/>
</clipPath>
<clipPath id="clip12">
  <path d="M 308 40.375 L 312 40.375 L 312 91.0625 L 308 91.0625 Z M 308 40.375 "/>
</clipPath>
<clipPath id="clip13">
  <path d="M 415 23.476562 L 463.34375 23.476562 L 463.34375 103.515625 L 415 103.515625 Z M 415 23.476562 "/>
</clipPath>
<clipPath id="clip14">
  <path d="M 414.496094 23.476562 L 463.34375 23.476562 L 463.34375 100 L 414.496094 100 Z M 414.496094 23.476562 "/>
</clipPath>
<clipPath id="clip15">
  <path d="M 36.167969 150.648438 L 89.453125 150.648438 L 89.453125 230.683594 L 36.167969 230.683594 Z M 36.167969 150.648438 "/>
</clipPath>
<clipPath id="clip16">
  <path d="M 77 218 L 89.453125 218 L 89.453125 230.683594 L 77 230.683594 Z M 77 218 "/>
</clipPath>
<clipPath id="clip17">
  <path d="M 163 164 L 214 164 L 214 217 L 163 217 Z M 163 164 "/>
</clipPath>
<clipPath id="clip18">
  <path d="M 162.277344 216.453125 L 213.789062 216.453125 L 213.789062 164.875 L 160.5 164.875 L 160.5 215.566406 Z M 162.277344 216.453125 "/>
</clipPath>
<clipPath id="clip19">
  <path d="M 162 164 L 214 164 L 214 207 L 162 207 Z M 162 164 "/>
</clipPath>
<clipPath id="clip20">
  <path d="M 162.277344 216.453125 L 213.789062 216.453125 L 213.789062 164.875 L 160.5 164.875 L 160.5 215.566406 Z M 162.277344 216.453125 "/>
</clipPath>
<clipPath id="clip21">
  <path d="M 290 167 L 330 167 L 330 221 L 290 221 Z M 290 167 "/>
</clipPath>
<clipPath id="clip22">
  <path d="M 290.164062 220.011719 L 329.238281 220.011719 L 329.238281 167.542969 L 291.050781 167.542969 L 291.050781 220.902344 Z M 290.164062 220.011719 "/>
</clipPath>
<clipPath id="clip23">
  <path d="M 411.832031 148.867188 L 463.34375 148.867188 L 463.34375 228.90625 L 411.832031 228.90625 Z M 411.832031 148.867188 "/>
</clipPath>
</defs>
<g id="surface1">
<g clip-path="url(#clip1)" clip-rule="nonzero">
<path style=" stroke:none;fill-rule:nonzero;fill:rgb(95.686275%,47.058824%,23.137255%);fill-opacity:1;" d="M 244.871094 11.027344 C 244.871094 43.929688 246.648438 76.835938 247.535156 108.851562 C 246.648438 115.964844 243.09375 120.410156 235.988281 121.300781 C 203.128906 121.300781 171.160156 123.078125 138.300781 123.96875 C 131.195312 123.078125 127.640625 119.519531 125.867188 112.40625 L 124.089844 14.585938 C 124.089844 7.46875 128.53125 3.914062 134.746094 2.132812 L 232.4375 0.355469 C 239.542969 0.355469 243.984375 4.800781 244.871094 11.027344 "/>
</g>
<g clip-path="url(#clip2)" clip-rule="nonzero">
<path style=" stroke:none;fill-rule:nonzero;fill:rgb(100%,89.411765%,0%);fill-opacity:1;" d="M 371.867188 13.695312 L 371.867188 111.515625 C 370.09375 118.632812 366.539062 123.078125 359.433594 123.96875 L 261.746094 123.96875 C 255.527344 123.078125 251.085938 118.632812 250.199219 112.40625 L 250.199219 14.585938 C 251.085938 7.46875 255.527344 3.023438 261.746094 2.132812 L 359.433594 2.132812 C 366.539062 3.023438 370.09375 7.46875 371.867188 13.695312 "/>
</g>
<g clip-path="url(#clip3)" clip-rule="nonzero">
<path style=" stroke:none;fill-rule:nonzero;fill:rgb(92.941177%,6.666667%,39.215687%);fill-opacity:1;" d="M 498.867188 15.472656 L 496.203125 113.296875 C 495.3125 120.410156 490.875 123.96875 484.65625 124.855469 L 386.964844 122.1875 C 379.863281 121.300781 376.308594 116.851562 375.421875 110.628906 L 378.085938 11.917969 C 378.972656 4.800781 383.414062 1.246094 389.628906 0.355469 L 487.320312 3.023438 C 494.425781 4.800781 497.976562 8.359375 498.867188 15.472656 "/>
</g>
<g clip-path="url(#clip4)" clip-rule="nonzero">
<path style=" stroke:none;fill-rule:nonzero;fill:rgb(92.941177%,11.372549%,14.117648%);fill-opacity:1;" d="M 121.425781 139.085938 L 121.425781 236.90625 C 120.539062 244.023438 116.984375 247.578125 109.878906 248.46875 L 12.191406 248.46875 C 5.085938 248.46875 1.53125 244.023438 0.644531 237.796875 L 0.644531 139.085938 C 0.644531 131.972656 5.085938 128.414062 12.191406 127.523438 L 109.878906 127.523438 C 116.984375 128.414062 120.539062 131.972656 121.425781 139.085938 "/>
</g>
<g clip-path="url(#clip5)" clip-rule="nonzero">
<path style=" stroke:none;fill-rule:nonzero;fill:rgb(10.588235%,65.490198%,32.549021%);fill-opacity:1;" d="M 246.648438 139.085938 L 246.648438 236.90625 C 245.757812 244.023438 241.320312 247.578125 235.101562 248.46875 L 137.410156 248.46875 C 130.308594 248.46875 126.753906 244.023438 124.976562 237.796875 L 124.976562 139.085938 C 126.753906 131.972656 130.308594 128.414062 137.410156 127.523438 L 235.101562 127.523438 C 241.320312 128.414062 245.757812 131.972656 246.648438 139.085938 "/>
</g>
<g clip-path="url(#clip6)" clip-rule="nonzero">
<path style=" stroke:none;fill-rule:nonzero;fill:rgb(0%,51.372552%,79.215688%);fill-opacity:1;" d="M 370.980469 139.085938 L 370.980469 236.90625 C 370.980469 244.023438 366.539062 247.578125 359.433594 248.46875 L 261.746094 248.46875 C 254.640625 248.46875 251.085938 244.023438 250.199219 237.796875 L 250.199219 139.085938 C 251.085938 131.972656 255.527344 128.414062 261.746094 127.523438 L 359.433594 127.523438 C 366.539062 128.414062 370.09375 131.972656 370.980469 139.085938 "/>
</g>
<g clip-path="url(#clip7)" clip-rule="nonzero">
<path style=" stroke:none;fill-rule:nonzero;fill:rgb(0%,51.372552%,79.215688%);fill-opacity:1;" d="M 121.425781 12.804688 L 121.425781 110.628906 C 120.539062 117.742188 116.984375 122.1875 109.878906 123.078125 L 12.191406 123.078125 C 5.085938 122.1875 1.53125 117.742188 0.644531 111.515625 L 0.644531 12.804688 C 0.644531 5.691406 5.085938 2.132812 12.191406 1.246094 L 109.878906 1.246094 C 116.984375 2.132812 120.539062 5.691406 121.425781 12.804688 "/>
</g>
<g clip-path="url(#clip8)" clip-rule="nonzero">
<path style=" stroke:none;fill-rule:nonzero;fill:rgb(95.686275%,47.058824%,23.137255%);fill-opacity:1;" d="M 496.203125 139.085938 L 496.203125 236.90625 C 495.3125 244.023438 491.761719 247.578125 484.65625 248.46875 L 386.964844 248.46875 C 379.863281 248.46875 376.308594 244.023438 375.421875 237.796875 L 375.421875 139.085938 C 375.421875 131.972656 379.863281 128.414062 386.964844 127.523438 L 484.65625 127.523438 C 491.761719 128.414062 495.3125 131.972656 496.203125 139.085938 "/>
</g>
<g clip-path="url(#clip9)" clip-rule="nonzero">
<path style=" stroke:none;fill-rule:nonzero;fill:rgb(94.901961%,94.901961%,95.294118%);fill-opacity:1;" d="M 71.691406 82.171875 C 73.46875 76.835938 72.582031 73.277344 71.691406 67.941406 C 69.917969 66.164062 69.027344 63.496094 66.363281 63.496094 C 63.699219 62.605469 60.148438 63.496094 59.257812 63.496094 C 55.707031 66.164062 53.929688 72.386719 53.042969 76.835938 C 52.3125 80.953125 52.3125 85.167969 53.042969 89.285156 C 53.929688 91.0625 60.148438 91.953125 62.8125 91.0625 L 66.363281 89.285156 L 68.140625 89.285156 L 71.691406 82.171875 M 86.789062 72.386719 C 86.789062 81.28125 85.015625 90.175781 80.574219 94.621094 L 75.246094 99.066406 L 69.917969 100.847656 C 67.25 100.847656 66.363281 102.625 62.8125 103.515625 C 53.929688 103.515625 45.050781 100.847656 38.832031 96.398438 L 38.832031 23.476562 L 51.265625 23.476562 C 53.042969 29.703125 51.265625 36.816406 51.265625 42.152344 L 52.15625 44.820312 L 52.15625 52.824219 C 61.035156 51.046875 73.46875 50.15625 78.796875 55.492188 L 80.574219 58.160156 L 82.347656 59.050781 C 85.015625 61.71875 86.789062 67.941406 86.789062 72.386719 "/>
</g>
<g clip-path="url(#clip10)" clip-rule="nonzero">
<path style=" stroke:none;fill-rule:nonzero;fill:rgb(94.901961%,94.901961%,95.294118%);fill-opacity:1;" d="M 191.585938 82.171875 C 196.027344 77.722656 195.136719 67.941406 194.25 61.71875 L 191.585938 59.050781 C 188.03125 57.269531 182.703125 56.382812 179.152344 59.050781 C 173.824219 63.496094 173.824219 76.835938 179.152344 82.171875 C 182.703125 84.839844 188.921875 83.949219 191.585938 82.171875 M 209.347656 66.164062 L 209.347656 72.386719 L 208.460938 72.386719 C 207.570312 86.617188 201.355469 93.730469 188.921875 95.511719 L 187.144531 96.398438 L 181.816406 96.398438 C 176.488281 96.398438 171.160156 91.953125 167.605469 89.285156 C 167.605469 87.507812 165.832031 86.617188 164.941406 84.839844 L 163.167969 81.28125 L 161.390625 70.609375 C 161.390625 61.71875 164.941406 54.601562 170.269531 49.265625 C 175.265625 45.992188 181.1875 44.429688 187.144531 44.820312 L 192.472656 44.820312 C 197.632812 46.980469 201.984375 50.714844 204.90625 55.492188 L 208.460938 66.164062 "/>
</g>
<g clip-path="url(#clip11)" clip-rule="nonzero">
<path style=" stroke:none;fill-rule:nonzero;fill:rgb(94.901961%,94.901961%,95.294118%);fill-opacity:1;" d="M 315.03125 43.042969 Z M 322.136719 67.054688 C 322.136719 62.605469 322.136719 58.160156 320.359375 56.382812 C 318.71875 53.535156 315.644531 51.824219 312.367188 51.933594 C 307.925781 51.933594 305.261719 53.714844 303.484375 56.382812 C 300.820312 59.9375 299.933594 71.5 303.484375 75.945312 C 304.375 77.722656 307.039062 78.613281 308.8125 78.613281 C 312.367188 79.503906 316.808594 78.613281 318.582031 76.835938 L 321.246094 73.277344 L 321.246094 69.71875 L 322.136719 67.054688 M 332.792969 51.046875 C 334.570312 54.601562 336.34375 59.9375 336.34375 65.273438 C 336.34375 68.832031 336.34375 71.5 334.570312 74.167969 L 333.679688 78.613281 L 330.128906 83.949219 L 326.574219 86.617188 L 321.246094 90.175781 L 312.367188 91.953125 L 308.8125 91.953125 C 295.492188 90.175781 289.277344 83.058594 287.5 69.71875 L 287.5 63.496094 C 289.277344 50.15625 295.492188 42.152344 307.039062 40.375 L 314.140625 40.375 C 318.816406 40.367188 323.410156 41.59375 327.464844 43.929688 C 327.464844 45.710938 329.238281 45.710938 330.128906 47.488281 L 332.792969 51.046875 "/>
</g>
<g clip-path="url(#clip12)" clip-rule="nonzero">
<path style=" stroke:none;fill-rule:nonzero;fill:rgb(100%,100%,100%);fill-opacity:1;" d="M 311.476562 91.0625 L 308.8125 91.0625 L 311.476562 91.0625 M 310.589844 40.375 L 309.703125 40.375 Z M 310.589844 40.375 "/>
</g>
<g clip-path="url(#clip13)" clip-rule="nonzero">
<path style=" stroke:none;fill-rule:nonzero;fill:rgb(94.901961%,94.901961%,95.294118%);fill-opacity:1;" d="M 463.34375 94.621094 L 463.34375 99.957031 C 461.566406 102.625 457.125 102.625 454.460938 103.515625 L 451.796875 103.515625 C 449.132812 103.515625 446.46875 102.625 444.691406 100.847656 C 442.027344 99.957031 441.140625 97.289062 438.476562 95.511719 L 435.8125 91.953125 L 429.59375 84.839844 L 429.59375 102.625 L 415.386719 102.625 L 415.386719 91.953125 C 415.441406 89.878906 415.441406 87.800781 415.386719 85.726562 L 415.386719 72.386719 L 416.273438 59.9375 L 416.273438 47.488281 L 417.160156 36.816406 L 418.050781 23.476562 L 428.707031 23.476562 L 431.371094 24.367188 L 431.371094 37.707031 L 430.484375 64.386719 L 433.148438 62.605469 L 434.035156 62.605469 L 435.8125 60.828125 L 435.8125 59.9375 L 439.363281 58.160156 L 443.804688 53.714844 L 462.453125 53.714844 L 457.125 59.9375 L 451.796875 65.273438 L 440.25 75.054688 L 446.46875 83.058594 C 449.132812 85.726562 451.796875 91.953125 457.125 90.175781 C 458.902344 90.175781 460.679688 87.507812 463.34375 87.507812 L 463.34375 94.621094 "/>
</g>
<g clip-path="url(#clip14)" clip-rule="nonzero">
<path style=" stroke:none;fill-rule:nonzero;fill:rgb(100%,100%,100%);fill-opacity:1;" d="M 463.34375 93.730469 L 463.34375 94.621094 M 418.9375 23.476562 L 418.9375 23.476562 M 415.386719 85.726562 L 415.386719 90.175781 L 415.386719 85.726562 M 415.386719 91.0625 L 415.386719 95.511719 L 415.386719 91.953125 M 414.496094 96.398438 L 414.496094 99.957031 L 414.496094 96.398438 M 415.386719 82.171875 L 415.386719 84.839844 L 415.386719 83.058594 "/>
</g>
<g clip-path="url(#clip15)" clip-rule="nonzero">
<path style=" stroke:none;fill-rule:nonzero;fill:rgb(94.901961%,94.901961%,95.294118%);fill-opacity:1;" d="M 89.453125 221.789062 L 88.566406 221.789062 L 88.566406 226.238281 L 85.902344 228.015625 C 84.125 229.792969 82.347656 230.683594 79.683594 230.683594 L 77.910156 230.683594 C 73.46875 230.683594 70.804688 228.015625 69.027344 226.238281 L 64.585938 228.015625 C 61.921875 228.90625 58.371094 230.683594 54.820312 230.683594 L 46.824219 228.015625 C 45.4375 226.984375 43.949219 226.089844 42.386719 225.347656 L 39.722656 222.679688 L 37.058594 217.34375 C 35.28125 213.785156 35.28125 209.339844 34.390625 204.894531 L 35.28125 201.335938 L 35.28125 196 L 38.832031 189.777344 C 41.496094 187.109375 43.273438 182.660156 46.824219 180.882812 L 48.601562 180.882812 L 50.378906 179.105469 C 53.929688 177.324219 59.257812 177.324219 64.585938 177.324219 L 67.25 177.324219 L 67.25 172.878906 C 68.140625 168.433594 67.25 163.984375 67.25 158.648438 L 68.140625 155.980469 L 68.140625 150.648438 L 82.347656 150.648438 L 82.347656 179.992188 L 81.460938 184.441406 L 81.460938 209.339844 L 80.574219 211.117188 L 80.574219 217.34375 C 83.238281 217.34375 85.902344 213.785156 89.453125 214.675781 L 89.453125 218.234375 L 88.566406 218.234375 L 88.566406 221.789062 M 53.929688 192.445312 L 53.929688 194.222656 L 52.15625 195.109375 L 52.15625 198.667969 L 50.378906 198.667969 L 50.378906 203.113281 L 49.488281 206.671875 L 49.488281 210.230469 L 52.15625 215.566406 L 54.820312 215.566406 C 58.371094 217.34375 61.921875 215.566406 63.699219 213.785156 L 63.699219 212.898438 L 65.476562 207.5625 C 65.476562 205.78125 66.363281 205.78125 65.476562 204.003906 C 67.25 201.335938 67.25 196 67.25 191.554688 L 63.699219 189.777344 C 60.148438 189.777344 56.59375 191.554688 54.820312 192.445312 "/>
</g>
<g clip-path="url(#clip16)" clip-rule="nonzero">
<path style=" stroke:none;fill-rule:nonzero;fill:rgb(100%,100%,100%);fill-opacity:1;" d="M 89.453125 218.234375 L 89.453125 221.789062 L 88.566406 218.234375 Z M 77.910156 230.683594 C 77.910156 230.683594 78.796875 230.683594 77.910156 230.683594 Z M 77.910156 230.683594 "/>
</g>
<g clip-path="url(#clip17)" clip-rule="nonzero">
<g clip-path="url(#clip18)" clip-rule="nonzero">
<path style=" stroke:none;fill-rule:nonzero;fill:rgb(94.901961%,94.901961%,95.294118%);fill-opacity:1;" d="M 191.585938 196.890625 C 193.363281 191.554688 192.472656 183.550781 193.363281 178.214844 L 182.703125 178.214844 C 180.039062 179.992188 178.265625 182.660156 177.375 185.328125 L 177.375 187.996094 C 174.710938 194.222656 175.597656 204.003906 183.59375 203.113281 L 188.03125 201.335938 L 190.695312 198.667969 L 190.695312 196.890625 M 214.675781 205.78125 L 214.675781 211.117188 C 213.789062 214.675781 210.234375 216.453125 205.792969 216.453125 L 204.90625 216.453125 L 197.800781 214.675781 C 197.800781 213.785156 196.914062 212.007812 195.136719 212.007812 L 191.585938 214.675781 L 186.257812 216.453125 L 177.375 216.453125 C 175.460938 215.871094 173.660156 214.96875 172.046875 213.785156 L 167.605469 210.230469 L 165.832031 206.671875 L 163.167969 196 L 163.167969 190.664062 C 163.394531 186.015625 164.605469 181.46875 166.71875 177.324219 L 169.382812 173.769531 L 172.046875 170.210938 L 175.597656 168.433594 C 179.152344 166.652344 183.59375 164.875 188.921875 164.875 L 196.027344 164.875 C 200.464844 164.875 204.019531 165.765625 206.683594 167.542969 L 206.683594 196.890625 L 207.570312 203.113281 C 210.234375 204.003906 212.011719 201.335938 214.675781 201.335938 L 214.675781 206.671875 "/>
</g>
</g>
<g clip-path="url(#clip19)" clip-rule="nonzero">
<g clip-path="url(#clip20)" clip-rule="nonzero">
<path style=" stroke:none;fill-rule:nonzero;fill:rgb(100%,100%,100%);fill-opacity:1;" d="M 213.789062 204.894531 L 213.789062 206.671875 L 213.789062 204.894531 M 195.136719 164.875 L 193.363281 164.875 Z M 190.695312 164.875 L 187.144531 164.875 L 189.808594 164.875 M 162.277344 193.332031 C 162.277344 193.332031 162.277344 194.222656 162.277344 193.332031 Z M 162.277344 193.332031 "/>
</g>
</g>
<g clip-path="url(#clip21)" clip-rule="nonzero">
<g clip-path="url(#clip22)" clip-rule="nonzero">
<path style=" stroke:none;fill-rule:nonzero;fill:rgb(94.901961%,94.901961%,95.294118%);fill-opacity:1;" d="M 329.238281 204.003906 C 328.351562 215.566406 320.359375 219.121094 309.703125 220.011719 L 300.820312 220.011719 L 297.269531 218.234375 L 295.492188 217.34375 L 293.714844 217.34375 L 290.164062 213.785156 C 290.164062 209.339844 291.941406 206.671875 292.828125 203.113281 L 294.605469 202.226562 C 295.492188 202.226562 295.492188 203.113281 296.378906 202.226562 C 299.933594 206.671875 305.261719 207.5625 311.476562 207.5625 L 313.253906 204.003906 C 313.253906 203.113281 311.476562 203.113281 311.476562 201.335938 L 300.820312 194.222656 L 298.15625 194.222656 L 294.605469 187.996094 L 292.828125 184.441406 L 292.828125 179.105469 C 294.605469 178.214844 294.605469 176.4375 295.492188 174.65625 L 298.15625 171.101562 L 308.8125 167.542969 L 313.253906 167.542969 C 318.714844 167.730469 323.984375 169.59375 328.351562 172.878906 L 327.464844 179.105469 C 327.464844 180.882812 327.464844 183.550781 325.6875 185.328125 L 320.359375 182.660156 L 314.140625 180.882812 L 307.925781 181.773438 C 307.925781 183.550781 309.703125 183.550781 309.703125 184.441406 C 315.917969 188.886719 322.136719 192.445312 326.574219 197.777344 L 328.351562 204.003906 "/>
</g>
</g>
<g clip-path="url(#clip23)" clip-rule="nonzero">
<path style=" stroke:none;fill-rule:nonzero;fill:rgb(94.901961%,94.901961%,95.294118%);fill-opacity:1;" d="M 463.34375 212.898438 L 463.34375 224.457031 C 461.566406 227.125 458.015625 228.015625 454.460938 228.90625 L 450.910156 228.90625 C 446.46875 228.015625 443.804688 224.457031 442.027344 221.789062 C 439.363281 214.675781 442.027344 204.003906 442.027344 195.109375 L 440.25 190.664062 C 437.585938 188.886719 434.921875 189.777344 432.257812 190.664062 L 430.484375 192.445312 L 429.59375 194.222656 L 427.820312 196 L 427.820312 198.667969 C 425.15625 206.671875 426.929688 220.011719 425.15625 228.015625 L 413.609375 228.015625 L 411.832031 227.125 L 411.832031 224.457031 C 411.832031 210.230469 411.832031 196 413.609375 182.660156 L 413.609375 150.648438 C 414.496094 150.648438 413.609375 148.867188 415.386719 148.867188 L 427.820312 148.867188 L 426.929688 178.214844 L 434.921875 176.4375 L 443.804688 176.4375 L 450.019531 179.105469 L 454.460938 186.21875 L 454.460938 187.109375 C 456.238281 194.222656 454.460938 205.78125 454.460938 213.785156 L 455.347656 216.453125 C 458.902344 216.453125 460.679688 212.898438 463.34375 212.898438 "/>
</g>
</g>
</svg>
