<svg xmlns="http://www.w3.org/2000/svg" width="74.9" height="37.3" viewBox="0 0 70.2 35"><defs><clipPath clipPathUnits="userSpaceOnUse" id="p"><path d="M103.3 484.5h5.8v9h-5.8v-9z"/></clipPath><clipPath clipPathUnits="userSpaceOnUse" id="o"><path d="M89.6 485.5H94v5.9h-4.3v-6z"/></clipPath><clipPath clipPathUnits="userSpaceOnUse" id="n"><path d="M75.2 485.9H81v5.8h-6V486z"/></clipPath><clipPath clipPathUnits="userSpaceOnUse" id="m"><path d="M60.8 484.3H67v9h-6v-9z"/></clipPath><clipPath clipPathUnits="userSpaceOnUse" id="l"><path d="M103.6 498.6h5.5v9h-5.5v-9z"/></clipPath><clipPath clipPathUnits="userSpaceOnUse" id="k"><path d="M89.3 500h5.5v5.7h-5.5V500z"/></clipPath><clipPath clipPathUnits="userSpaceOnUse" id="j"><path d="M75 499.4h5.4v5.8h-5.3v-5.8z"/></clipPath><clipPath clipPathUnits="userSpaceOnUse" id="i"><path d="M61.3 498.6h5.4v9h-5.4v-9z"/></clipPath><clipPath clipPathUnits="userSpaceOnUse" id="h"><path d="M99.2 482.3h13.6v13.6H99.2v-13.6z"/></clipPath><clipPath clipPathUnits="userSpaceOnUse" id="g"><path d="M57 496.4h13.6v13.7H57v-13.7z"/></clipPath><clipPath clipPathUnits="userSpaceOnUse" id="f"><path d="M85.1 482.3h13.6v13.6H85.1v-13.6z"/></clipPath><clipPath clipPathUnits="userSpaceOnUse" id="e"><path d="M71 482.3h13.7v13.6H71v-13.6z"/></clipPath><clipPath clipPathUnits="userSpaceOnUse" id="d"><path d="M57 482.3h13.6v13.6H57v-13.6z"/></clipPath><clipPath clipPathUnits="userSpaceOnUse" id="c"><path d="M99.2 496.2h14v14h-14v-14z"/></clipPath><clipPath clipPathUnits="userSpaceOnUse" id="b"><path d="M85.1 496.3h13.7V510H85v-13.7z"/></clipPath><clipPath clipPathUnits="userSpaceOnUse" id="a"><path d="M70.9 496.3h13.9v14h-14v-14z"/></clipPath></defs><g clip-path="url(#a)" transform="matrix(1.25 0 0 -1.25 -71.2 637.8)"><path d="M84.5 509c0-3.7.2-7.4.3-11-.1-.8-.5-1.3-1.3-1.4-3.7 0-7.3-.2-11-.3-.8.1-1.2.5-1.4 1.3l-.2 11c0 .8.5 1.2 1.2 1.4l11 .2c.8 0 1.3-.5 1.4-1.2" fill="#f4783b"/></g><g clip-path="url(#b)" transform="matrix(1.25 0 0 -1.25 -71.2 637.8)"><path d="M98.8 508.7v-11c-.2-.8-.6-1.3-1.4-1.4h-11c-.7.1-1.2.6-1.3 1.3v11c.1.8.6 1.3 1.3 1.4h11c.8-.1 1.2-.6 1.4-1.3" fill="#ffe400"/></g><g clip-path="url(#c)" transform="matrix(1.25 0 0 -1.25 -71.2 637.8)"><path d="M113.1 508.5l-.3-11c-.1-.8-.6-1.2-1.3-1.3l-11 .3c-.8.1-1.2.6-1.3 1.3l.3 11.1c.1.8.6 1.2 1.3 1.3l11-.3c.8-.2 1.2-.6 1.3-1.4" fill="#ed1164"/></g><g clip-path="url(#d)" transform="matrix(1.25 0 0 -1.25 -71.2 637.8)"><path d="M70.6 494.6v-11c-.1-.8-.5-1.2-1.3-1.3h-11c-.8 0-1.2.5-1.3 1.2v11.1c0 .8.5 1.2 1.3 1.3h11c.8-.1 1.2-.5 1.3-1.3" fill="#ed1d24"/></g><g clip-path="url(#e)" transform="matrix(1.25 0 0 -1.25 -71.2 637.8)"><path d="M84.7 494.6v-11c-.1-.8-.6-1.2-1.3-1.3h-11c-.8 0-1.2.5-1.4 1.2v11.1c.2.8.6 1.2 1.4 1.3h11c.7-.1 1.2-.5 1.3-1.3" fill="#1ba753"/></g><g clip-path="url(#f)" transform="matrix(1.25 0 0 -1.25 -71.2 637.8)"><path d="M98.7 494.6v-11c0-.8-.5-1.2-1.3-1.3h-11c-.8 0-1.2.5-1.3 1.2v11.1c.1.8.6 1.2 1.3 1.3h11c.8-.1 1.2-.5 1.3-1.3" fill="#0083ca"/></g><g clip-path="url(#g)" transform="matrix(1.25 0 0 -1.25 -71.2 637.8)"><path d="M70.6 508.8v-11c-.1-.8-.5-1.3-1.3-1.4h-11c-.8.1-1.2.6-1.3 1.3v11.1c0 .8.5 1.2 1.3 1.3h11c.8-.1 1.2-.5 1.3-1.3" fill="#0083ca"/></g><g clip-path="url(#h)" transform="matrix(1.25 0 0 -1.25 -71.2 637.8)"><path d="M112.8 494.6v-11c-.1-.8-.5-1.2-1.3-1.3h-11c-.8 0-1.2.5-1.3 1.2v11.1c0 .8.5 1.2 1.3 1.3h11c.8-.1 1.2-.5 1.3-1.3" fill="#f4783b"/></g><g clip-path="url(#i)" transform="matrix(1.25 0 0 -1.25 -71.2 637.8)"><path d="M65 501c.2.6.1 1 0 1.6-.2.2-.3.5-.6.5-.3.1-.7 0-.8 0-.4-.3-.6-1-.7-1.5a4 4 0 0 1 0-1.4c.1-.2.8-.3 1.1-.2l.4.2h.2l.4.8m1.7 1.1c0-1-.2-2-.7-2.5l-.6-.5-.6-.2c-.3 0-.4-.2-.8-.3-1 0-2 .3-2.7.8v8.2h1.4c.2-.7 0-1.5 0-2.1l.1-.3v-.9c1 .2 2.4.3 3-.3l.2-.3.2-.1c.3-.3.5-1 .5-1.5" fill="#f2f2f3"/></g><g clip-path="url(#j)" transform="matrix(1.25 0 0 -1.25 -71.2 637.8)"><path d="M78.5 501c.5.5.4 1.6.3 2.3l-.3.3c-.4.2-1 .3-1.4 0-.6-.5-.6-2 0-2.6.4-.3 1.1-.2 1.4 0m2 1.8v-.7h-.1c-.1-1.6-.8-2.4-2.2-2.6l-.2-.1h-.3-.3c-.6 0-1.2.5-1.6.8 0 .2-.2.3-.3.5l-.2.4-.2 1.2c0 1 .4 1.8 1 2.4a3.1 3.1 0 0 0 1.9.5h.6A3 3 0 0 0 80 504l.4-1.2" fill="#f2f2f3"/></g><g clip-path="url(#k)" transform="matrix(1.25 0 0 -1.25 -71.2 637.8)"><path d="M92.4 505.4zm.8-2.7c0 .5 0 1-.2 1.2a1 1 0 0 1-.9.5c-.5 0-.8-.2-1-.5-.3-.4-.4-1.7 0-2.2.1-.2.4-.3.6-.3.4-.1.9 0 1.1.2l.3.4v.4l.1.3m1.2 1.8c.2-.4.4-1 .4-1.6 0-.4 0-.7-.2-1l-.1-.5-.4-.6-.4-.3-.6-.4-1-.2h-.4c-1.5.2-2.2 1-2.4 2.5v.7c.2 1.5.9 2.4 2.2 2.6h.8a3 3 0 0 0 1.5-.4c0-.2.2-.2.3-.4l.3-.4" fill="#f2f2f3"/><path d="M92 500h-.3.3M91.9 505.7h-.1.1z" fill="#fff"/></g><g clip-path="url(#l)" transform="matrix(1.25 0 0 -1.25 -71.2 637.8)"><path d="M109.1 499.6v-.2-.4c-.2-.3-.7-.3-1-.4h-.3c-.3 0-.6.1-.8.3-.3.1-.4.4-.7.6l-.3.4-.7.8v-2h-1.6v1.2a13.3 13.3 0 0 1 0 .7v1.5l.1 1.4v1.4l.1 1.2.1 1.5H105.2l.3-.1V506l-.1-3 .3.2h.1l.2.2v.1l.4.2.5.5h2.1l-.6-.7-.6-.6-1.3-1.1.7-.9c.3-.3.6-1 1.2-.8.2 0 .4.3.7.3V500.1v-.4-.1" fill="#f2f2f3"/><path d="M109.1 499.7v-.1M104.1 507.6h0M103.7 500.6v-.5.5M103.7 500v-.5.4M103.6 499.4v-.4.4M103.7 501v-.3.2" fill="#fff"/></g><g clip-path="url(#m)" transform="matrix(1.25 0 0 -1.25 -71.2 637.8)"><path d="M67 485.3h-.1v-.5l-.3-.2c-.2-.2-.4-.3-.7-.3h-.1-.1c-.5 0-.8.3-1 .5l-.5-.2c-.3-.1-.7-.3-1.1-.3l-.9.3a3 3 0 0 1-.5.3l-.3.3-.3.6c-.2.4-.2.9-.3 1.4l.1.4v.6l.4.7c.3.3.5.8.9 1h.2l.2.2c.4.2 1 .2 1.6.2h.3v.5c.1.5 0 1 0 1.6l.1.3v.6h1.6v-1.6-.4-.3-1l-.1-.5v-.3-2.5l-.1-.2v-.1-.6c.3 0 .6.4 1 .3v-.4h-.1v-.4m-3.9 3.3v-.2l-.2-.1v-.4h-.2v-.5l-.1-.4v-.4l.3-.6h.3c.4-.2.8 0 1 .2v.1l.2.6c0 .2.1.2 0 .4.2.3.2.9.2 1.4l-.4.2c-.4 0-.8-.2-1-.3" fill="#f2f2f3"/><path d="M67 485.7v-.4l-.1.4zM65.7 484.3s.1 0 0 0z" fill="#fff"/></g><g clip-path="url(#n)" transform="matrix(1.25 0 0 -1.25 -71.2 637.8)"><path d="M78.5 488.1c.2.6.1 1.5.2 2.1h-1.2c-.3-.2-.5-.5-.6-.8v-.3c-.3-.7-.2-1.8.7-1.7l.5.2.3.3v.2m2.7-1v-.6c-.1-.4-.5-.6-1-.6H80l-.8.2c0 .1-.1.3-.3.3l-.4-.3-.6-.2h-1a2 2 0 0 0-.6.3l-.5.4-.2.4-.3 1.2V488.8a3.7 3.7 0 0 0 .4 1.5l.3.4.3.4.4.2c.4.2.9.4 1.5.4h.8c.5 0 .9-.1 1.2-.3v-2.3-1l.1-.7c.3-.1.5.2.8.2v-.4-.2" fill="#f2f2f3"/><path d="M81 487.2v-.2.2M78.9 491.7h-.2.2zM78.4 491.7H78h.3M75.2 488.5s0-.1 0 0z" fill="#fff"/></g><g clip-path="url(#o)" transform="matrix(1.25 0 0 -1.25 -71.2 637.8)"><path d="M94 487.3c-.1-1.3-1-1.7-2.2-1.8H90.8l-.4.2-.2.1H90l-.4.4c0 .5.2.8.3 1.2l.2.1c.1 0 .1-.1.2 0 .4-.5 1-.6 1.7-.6l.2.4c0 .1-.2.1-.2.3l-1.2.8h-.3l-.4.7-.2.4V490.1c.2.1.2.3.3.5l.3.4 1.2.4h.5a3 3 0 0 0 1.7-.6l-.1-.7c0-.2 0-.5-.2-.7l-.6.3-.7.2-.7-.1c0-.2.2-.2.2-.3.7-.5 1.4-.9 1.9-1.5l.2-.7" fill="#f2f2f3"/><path d="M91.9 491.4h0" fill="#fff"/></g><g clip-path="url(#p)" transform="matrix(1.25 0 0 -1.25 -71.2 637.8)"><path d="M109.1 486.3V485c-.2-.3-.6-.4-1-.5h-.4c-.5.1-.8.5-1 .8-.3.8 0 2 0 3l-.2.5c-.3.2-.6.1-.9 0l-.2-.2-.1-.2-.2-.2v-.3c-.3-.9-.1-2.4-.3-3.3h-1.3l-.2.1V485c0 1.6 0 3.2.2 4.7v3.6c.1 0 0 .2.2.2h1.4l-.1-3.3.9.2h1l.7-.3.5-.8v-.1c.2-.8 0-2.1 0-3l.1-.3c.4 0 .6.4.9.4" fill="#f2f2f3"/><path d="M103.3 484.8z" fill="#fff"/></g></svg>