<?xml version="1.0" encoding="UTF-8" standalone="no"?>
<svg
   xmlns:dc="http://purl.org/dc/elements/1.1/"
   xmlns:cc="http://creativecommons.org/ns#"
   xmlns:rdf="http://www.w3.org/1999/02/22-rdf-syntax-ns#"
   xmlns:svg="http://www.w3.org/2000/svg"
   xmlns="http://www.w3.org/2000/svg"
   xmlns:sodipodi="http://sodipodi.sourceforge.net/DTD/sodipodi-0.dtd"
   xmlns:inkscape="http://www.inkscape.org/namespaces/inkscape"
   width="220"
   height="220"
   viewBox="0 400 220 220"
   version="1.1"
   id="svg140"
   sodipodi:docname="icon.svg"
   inkscape:version="0.92.4 5da689c313, 2019-01-14">
  <metadata
     id="metadata146">
    <rdf:RDF>
      <cc:Work
         rdf:about="">
        <dc:format>image/svg+xml</dc:format>
        <dc:type
           rdf:resource="http://purl.org/dc/dcmitype/StillImage" />
        <dc:title></dc:title>
      </cc:Work>
    </rdf:RDF>
  </metadata>
  <defs
     id="defs144" />
  <sodipodi:namedview
     pagecolor="#ffffff"
     bordercolor="#666666"
     borderopacity="1"
     objecttolerance="10"
     gridtolerance="10"
     guidetolerance="10"
     inkscape:pageopacity="0"
     inkscape:pageshadow="2"
     inkscape:window-width="2560"
     inkscape:window-height="1440"
     id="namedview142"
     showgrid="false"
     inkscape:zoom="2.3339844"
     inkscape:cx="512"
     inkscape:cy="104"
     inkscape:window-x="0"
     inkscape:window-y="0"
     inkscape:window-maximized="1"
     inkscape:current-layer="svg140" />
  <rect
     width="100%"
     height="100%"
     fill="rgba(252,252,180,1)"
     id="rect98"
     x="-14"
     y="-8" />
  <path
     d="m 197,608 c 0,-5 -39,-9 -87,-9 -48,0 -87,4 -87,9 0,4 39,8 87,8 48,0 87,-4 87,-8"
     id="path102"
     inkscape:connector-curvature="0"
     style="fill:#dfe098" />
  <path
     d="m 192,410 c 0,0 -3,-14 -38,25 l 1,2 a 98,98 0 0 0 -90,0 l 1,-2 C 31,396 28,410 28,410 c -13,28 -5,62 -1,78 a 68,68 0 0 0 0,9 c 0,24 12,45 31,59 a 39,39 0 0 0 0,7 c 0,25 23,45 52,45 29,0 52,-20 52,-45 l -1,-7 c 20,-14 32,-35 32,-59 a 67,67 0 0 0 -1,-9 c 5,-16 13,-50 0,-78"
     id="path104"
     inkscape:connector-curvature="0"
     style="fill:#ffffff" />
  <path
     d="m 55,563 1,-6 A 76,76 0 0 1 25,488 c -3,-10 -7,-26 -7,-43 0,-12 2,-24 7,-36 a 6,6 0 0 1 2,-2 l 4,-2 c 6,0 16,6 36,28 12,-6 27,-9 43,-9 16,0 30,3 43,9 20,-22 29,-28 35,-28 3,0 4,1 5,2 l 1,2 c 6,12 7,24 7,36 0,17 -3,33 -6,43 v 9 c 0,24 -12,46 -31,60 v 6 c 0,26 -24,47 -54,47 -30,0 -55,-21 -55,-47 z M 30,411 c -5,11 -7,23 -7,34 0,17 4,33 7,42 v 1 a 66,66 0 0 0 -1,9 c 0,23 12,44 31,57 l 1,1 v 2 a 37,37 0 0 0 -1,6 c 0,12 6,22 15,30 9,8 21,12 35,12 14,0 26,-4 35,-12 a 39,39 0 0 0 14,-36 v -2 l 1,-1 a 71,71 0 0 0 30,-66 v -1 c 3,-9 7,-25 7,-42 0,-11 -2,-23 -7,-34 l 2,-1 2,-1 -2,1 -2,1 a 1,1 0 0 0 0,-1 h -2 c -2,0 -12,4 -31,26 l 4,7 -7,-4 c -13,-7 -28,-10 -44,-10 -16,0 -31,3 -44,10 l -7,4 4,-7 C 43,414 34,410 31,410 l -1,1"
     id="path106"
     inkscape:connector-curvature="0"
     style="fill:#231f20" />
  <path
     d="m 98,575 a 10,10 0 0 0 -4,0 c 0,-4 -4,-8 -8,-9 -5,-1 -10,1 -12,5 a 10,10 0 0 0 -3,-1 c -6,-1 -11,3 -12,9 a 11,11 0 0 0 3,9 c -2,11 5,20 15,22 10,2 20,-4 22,-14 a 10,10 0 0 0 8,-9 c 1,-5 -3,-11 -9,-12"
     id="path108"
     inkscape:connector-curvature="0"
     style="fill:#ffffff" />
  <path
     d="m 77,613 a 21,21 0 0 1 -17,-24 13,13 0 0 1 -4,-9 l 1,-2 a 13,13 0 0 1 17,-10 13,13 0 0 1 22,5 h 2 c 7,1 11,6 11,13 a 13,13 0 0 1 -8,12 21,21 0 0 1 -24,15 z M 64,592 a 16,16 0 0 0 17,16 c 7,0 14,-5 16,-13 v -1 l 1,-1 a 8,8 0 0 0 6,-6 v -1 c 0,-4 -2,-8 -6,-8 v -3 3 a 8,8 0 0 0 -2,0 h -4 v -3 c -1,-3 -3,-6 -7,-7 a 8,8 0 0 0 -1,0 c -3,0 -6,2 -7,4 l -2,3 -2,-2 a 8,8 0 0 0 -2,-1 8,8 0 0 0 -2,0 c -4,0 -7,3 -8,7 a 8,8 0 0 0 0,1 8,8 0 0 0 3,6 l 1,1 v 2 a 17,17 0 0 0 -1,3"
     id="path110"
     inkscape:connector-curvature="0"
     style="fill:#231f20" />
  <path
     d="m 89,597 c -1,5 -6,8 -11,7 a 9.2195445,9.2195445 0 0 1 4,-18 c 4,1 8,6 7,11 M 74,581 c 0,3 -3,5 -6,5 -3,-1 -5,-4 -4,-7 a 5.0990195,5.0990195 0 1 1 10,2 m 15,-4 c -1,3 -3,5 -6,4 a 5.0990195,5.0990195 0 0 1 2,-10 c 3,0 4,3 4,6 m 13,10 c -1,2 -4,4 -7,4 a 5.5901699,5.5901699 0 0 1 2,-11 c 3,1 5,4 5,7"
     id="path112"
     inkscape:connector-curvature="0"
     style="fill:#fab5d5" />
  <path
     d="m 122,575 a 10,10 0 0 1 4,0 c 0,-4 3,-8 8,-9 5,-1 9,1 11,5 a 10,10 0 0 1 4,-1 c 5,-1 11,3 12,9 0,3 -1,7 -3,9 1,11 -5,20 -16,22 -9,2 -19,-4 -21,-14 a 10,10 0 0 1 -8,-9 c -1,-5 3,-11 9,-12"
     id="path114"
     inkscape:connector-curvature="0"
     style="fill:#ffffff" />
  <path
     d="m 119,598 a 13,13 0 0 1 -8,-10 13,13 0 0 1 0,-2 13,13 0 0 1 12,-13 h 1 c 1,-5 5,-9 10,-10 a 12,12 0 0 1 2,0 c 4,0 8,2 10,5 a 13,13 0 0 1 2,0 12,12 0 0 1 3,-1 c 6,0 11,5 12,11 a 13,13 0 0 1 -3,11 21,21 0 0 1 -17,24 22,22 0 0 1 -4,0 c -9,0 -17,-6 -20,-15 z m 3,-20 a 8,8 0 0 0 -6,9 8,8 0 0 0 6,6 l 1,1 v 1 a 16,16 0 0 0 19,13 16,16 0 0 0 13,-19 v -2 l 1,-1 a 8,8 0 0 0 3,-6 l -1,-1 a 8,8 0 0 0 -9,-7 8,8 0 0 0 -2,1 l -3,2 -1,-3 a 8,8 0 0 0 -8,-4 c -4,1 -7,4 -7,7 v 3 h -3 a 7,7 0 0 0 -2,0 h -1 v -3 3"
     id="path116"
     inkscape:connector-curvature="0"
     style="fill:#231f20" />
  <path
     d="m 131,597 c 1,5 5,8 10,7 a 9.1241438,9.1241438 0 0 0 -3,-18 c -5,1 -8,6 -7,11 m 14,-16 a 5.5901699,5.5901699 0 1 0 11,-2 5.5901699,5.5901699 0 1 0 -11,2 m -14,-4 c 0,3 3,5 6,4 a 5.0990195,5.0990195 0 0 0 -2,-10 c -3,0 -5,3 -4,6 m -13,10 c 1,2 3,4 6,4 3,-1 5,-3 5,-6 a 5.5901699,5.5901699 0 1 0 -11,2 m 6,-75 c 0,4 -9,13 -14,13 -5,0 -15,-9 -15,-13 0,-3 7,-5 15,-5 8,0 14,2 14,5"
     id="path118"
     inkscape:connector-curvature="0"
     style="fill:#fab5d5" />
  <path
     d="m 100,522 c -4,-4 -6,-7 -6,-10 0,-3 2,-5 5,-6 l 11,-1 11,1 c 3,1 5,3 5,6 0,3 -3,6 -6,10 -3,2 -7,5 -10,5 -4,0 -7,-3 -10,-5 z m 18,-3 c 3,-3 5,-6 4,-7 l -2,-2 -10,-1 -10,1 -3,2 5,7 8,5 8,-5"
     id="path120"
     inkscape:connector-curvature="0"
     style="fill:#231f20" />
  <path
     d="m 133,558 c -4,10 0,20 12,25 12,4 21,-2 25,-12 3,-10 0,-20 -12,-25 -12,-4 -21,2 -25,12"
     id="path122"
     inkscape:connector-curvature="0"
     style="fill:#ffffff" />
  <path
     d="m 153,586 -9,-1 a 21,21 0 0 1 -13,-28 c 3,-9 10,-15 19,-15 l 9,2 a 21,21 0 0 1 13,28 c -3,9 -10,14 -19,14 z m -19,-21 c 0,6 4,12 12,15 l 7,2 c 7,0 12,-5 15,-12 l 1,-6 c 0,-7 -4,-12 -12,-15 l -7,-2 c -7,0 -12,5 -15,12 l -1,6"
     id="path124"
     inkscape:connector-curvature="0"
     style="fill:#231f20" />
  <path
     d="m 137,579 5,-14 4,1 -5,14 -4,-1 m 12,4 5,-13 4,1 -5,14 -4,-2"
     id="path126"
     inkscape:connector-curvature="0"
     style="fill:#231f20" />
  <path
     d="m 87,558 c 3,10 0,20 -12,25 -12,4 -21,-2 -25,-12 -4,-10 0,-20 12,-25 12,-4 21,2 25,12"
     id="path128"
     inkscape:connector-curvature="0"
     style="fill:#ffffff" />
  <path
     d="m 48,572 -2,-8 c 0,-8 5,-16 15,-20 l 9,-2 c 9,0 16,6 19,15 l -2,1 -2,1 c -3,-7 -8,-12 -15,-12 l -7,2 c -8,3 -12,8 -12,15 l 1,6 c 3,7 8,12 15,12 l 7,-2 c 8,-3 12,-9 12,-15 l -1,-6 2,-1 2,-1 2,8 c 0,8 -6,16 -15,20 l -9,1 c -9,0 -16,-5 -19,-14"
     id="path130"
     inkscape:connector-curvature="0"
     style="fill:#231f20" />
  <path
     d="m 74,566 4,-1 5,14 -4,1 -5,-14 m -12,5 3,-1 5,13 -3,2 -5,-14 m 92,-62 29,-8 1,4 -29,8 -1,-4 m 2,16 v -3 l 10,1 10,1 v 4 l -20,-3 m -120,-20 1,-4 29,8 -1,4 -29,-8 m 7,19 a 310,310 0 0 0 21,-2 v 3 l -21,3 v -4"
     id="path132"
     inkscape:connector-curvature="0"
     style="fill:#231f20" />
  <path
     d="m 35,478 c 0,0 -11,-18 -6,-49 0,0 13,9 17,30 0,0 -7,6 -11,19 m 150,0 c 0,0 11,-18 6,-49 0,0 -13,9 -18,30 0,0 7,6 12,19"
     id="path134"
     inkscape:connector-curvature="0"
     style="fill:#fab5d5" />
  <path
     d="m 78,479 c -6,0 -12,2 -16,8 l -3,-3 a 24,24 0 0 1 38,0 l -3,3 c -4,-6 -10,-8 -16,-8 m 63,0 c -6,0 -12,2 -16,8 l -3,-3 a 24,24 0 0 1 38,0 l -3,3 c -4,-6 -10,-8 -16,-8 m -14,54 c -2,2 -6,4 -10,4 -2,0 -5,0 -7,-2 -3,2 -5,2 -7,2 l -8,-2 a 19,19 0 0 1 -2,-2 h -1 l -2,2 c 0,1 5,6 13,6 2,0 4,0 7,-2 2,2 5,2 7,2 8,0 13,-5 13,-6 l -3,-2"
     id="path136"
     inkscape:connector-curvature="0"
     style="fill:#231f20" />
</svg>
