<svg xmlns="http://www.w3.org/2000/svg" width="220" height="220" viewBox="0 400 220 220"><path d="M197 608c0-5-39-9-87-9s-87 4-87 9c0 4 39 8 87 8s87-4 87-8" opacity=".1"/><path d="M192 410s-3-14-38 25l1 2a98 98 0 0 0-90 0l1-2c-35-39-38-25-38-25-13 28-5 62-1 78a68 68 0 0 0 0 9c0 24 12 45 31 59a39 39 0 0 0 0 7c0 25 23 45 52 45s52-20 52-45l-1-7c20-14 32-35 32-59a67 67 0 0 0-1-9c5-16 13-50 0-78" fill="#fff"/><path d="M55 563l1-6a76 76 0 0 1-31-69c-3-10-7-26-7-43 0-12 2-24 7-36a6 6 0 0 1 2-2l4-2c6 0 16 6 36 28 12-6 27-9 43-9s30 3 43 9c20-22 29-28 35-28 3 0 4 1 5 2l1 2c6 12 7 24 7 36 0 17-3 33-6 43v9c0 24-12 46-31 60v6c0 26-24 47-54 47s-55-21-55-47zM30 411c-5 11-7 23-7 34 0 17 4 33 7 42v1a66 66 0 0 0-1 9c0 23 12 44 31 57l1 1v2a37 37 0 0 0-1 6c0 12 6 22 15 30s21 12 35 12 26-4 35-12a39 39 0 0 0 14-36v-2l1-1a71 71 0 0 0 30-66v-1c3-9 7-25 7-42 0-11-2-23-7-34l2-1 2-1-2 1-2 1a1 1 0 0 0 0-1h-2c-2 0-12 4-31 26l4 7-7-4c-13-7-28-10-44-10s-31 3-44 10l-7 4 4-7c-20-22-29-26-32-26l-1 1" fill="#231f20"/><path d="M98 575a10 10 0 0 0-4 0c0-4-4-8-8-9-5-1-10 1-12 5a10 10 0 0 0-3-1c-6-1-11 3-12 9a11 11 0 0 0 3 9c-2 11 5 20 15 22s20-4 22-14a10 10 0 0 0 8-9c1-5-3-11-9-12" fill="#fff"/><path d="M77 613a21 21 0 0 1-17-24 13 13 0 0 1-4-9l1-2a13 13 0 0 1 17-10 13 13 0 0 1 22 5h2c7 1 11 6 11 13a13 13 0 0 1-8 12 21 21 0 0 1-24 15zm-13-21a16 16 0 0 0 17 16c7 0 14-5 16-13v-1l1-1a8 8 0 0 0 6-6v-1c0-4-2-8-6-8v-3 3a8 8 0 0 0-2 0h-4v-3c-1-3-3-6-7-7a8 8 0 0 0-1 0c-3 0-6 2-7 4l-2 3-2-2a8 8 0 0 0-2-1 8 8 0 0 0-2 0c-4 0-7 3-8 7a8 8 0 0 0 0 1 8 8 0 0 0 3 6l1 1v2a17 17 0 0 0-1 3" fill="#231f20"/><path d="M89 597c-1 5-6 8-11 7a9.22 9.22 0 0 1 4-18c4 1 8 6 7 11m-15-16c0 3-3 5-6 5-3-1-5-4-4-7a5.099 5.099 0 1 1 10 2m15-4c-1 3-3 5-6 4a5.099 5.099 0 0 1 2-10c3 0 4 3 4 6m13 10c-1 2-4 4-7 4a5.59 5.59 0 0 1 2-11c3 1 5 4 5 7" fill="#fab5d5"/><path d="M122 575a10 10 0 0 1 4 0c0-4 3-8 8-9s9 1 11 5a10 10 0 0 1 4-1c5-1 11 3 12 9 0 3-1 7-3 9 1 11-5 20-16 22-9 2-19-4-21-14a10 10 0 0 1-8-9c-1-5 3-11 9-12" fill="#fff"/><path d="M119 598a13 13 0 0 1-8-10 13 13 0 0 1 0-2 13 13 0 0 1 12-13h1c1-5 5-9 10-10a12 12 0 0 1 2 0c4 0 8 2 10 5a13 13 0 0 1 2 0 12 12 0 0 1 3-1c6 0 11 5 12 11a13 13 0 0 1-3 11 21 21 0 0 1-17 24 22 22 0 0 1-4 0c-9 0-17-6-20-15zm3-20a8 8 0 0 0-6 9 8 8 0 0 0 6 6l1 1v1a16 16 0 0 0 19 13 16 16 0 0 0 13-19v-2l1-1a8 8 0 0 0 3-6l-1-1a8 8 0 0 0-9-7 8 8 0 0 0-2 1l-3 2-1-3a8 8 0 0 0-8-4c-4 1-7 4-7 7v3h-3a7 7 0 0 0-2 0h-1v-3 3" fill="#231f20"/><path d="M131 597c1 5 5 8 10 7a9.124 9.124 0 0 0-3-18c-5 1-8 6-7 11m14-16a5.59 5.59 0 1 0 11-2 5.59 5.59 0 1 0-11 2m-14-4c0 3 3 5 6 4a5.099 5.099 0 0 0-2-10c-3 0-5 3-4 6m-13 10c1 2 3 4 6 4 3-1 5-3 5-6a5.59 5.59 0 1 0-11 2m6-75c0 4-9 13-14 13s-15-9-15-13c0-3 7-5 15-5s14 2 14 5" fill="#fab5d5"/><path d="M100 522c-4-4-6-7-6-10s2-5 5-6l11-1 11 1c3 1 5 3 5 6s-3 6-6 10c-3 2-7 5-10 5-4 0-7-3-10-5zm18-3c3-3 5-6 4-7l-2-2-10-1-10 1-3 2 5 7 8 5 8-5" fill="#231f20"/><path d="M133 558c-4 10 0 20 12 25 12 4 21-2 25-12 3-10 0-20-12-25-12-4-21 2-25 12" fill="#fff"/><path d="M153 586l-9-1a21 21 0 0 1-13-28c3-9 10-15 19-15l9 2a21 21 0 0 1 13 28c-3 9-10 14-19 14zm-19-21c0 6 4 12 12 15l7 2c7 0 12-5 15-12l1-6c0-7-4-12-12-15l-7-2c-7 0-12 5-15 12l-1 6" fill="#231f20"/><path d="M137 579l5-14 4 1-5 14-4-1m12 4l5-13 4 1-5 14-4-2" fill="#231f20"/><path d="M87 558c3 10 0 20-12 25-12 4-21-2-25-12s0-20 12-25c12-4 21 2 25 12" fill="#fff"/><path d="M48 572l-2-8c0-8 5-16 15-20l9-2c9 0 16 6 19 15l-2 1-2 1c-3-7-8-12-15-12l-7 2c-8 3-12 8-12 15l1 6c3 7 8 12 15 12l7-2c8-3 12-9 12-15l-1-6 2-1 2-1 2 8c0 8-6 16-15 20l-9 1c-9 0-16-5-19-14" fill="#231f20"/><path d="M74 566l4-1 5 14-4 1-5-14m-12 5l3-1 5 13-3 2-5-14m92-62l29-8 1 4-29 8-1-4m2 16v-3l10 1 10 1v4l-20-3M36 505l1-4 29 8-1 4-29-8m7 19a310 310 0 0 0 21-2v3l-21 3v-4" fill="#231f20"/><path d="M35 478s-11-18-6-49c0 0 13 9 17 30 0 0-7 6-11 19m150 0s11-18 6-49c0 0-13 9-18 30 0 0 7 6 12 19" fill="#fab5d5"/><path d="M78 479c-6 0-12 2-16 8l-3-3a24 24 0 0 1 38 0l-3 3c-4-6-10-8-16-8m63 0c-6 0-12 2-16 8l-3-3a24 24 0 0 1 38 0l-3 3c-4-6-10-8-16-8m-14 54c-2 2-6 4-10 4-2 0-5 0-7-2-3 2-5 2-7 2l-8-2a19 19 0 0 1-2-2h-1l-2 2c0 1 5 6 13 6 2 0 4 0 7-2 2 2 5 2 7 2 8 0 13-5 13-6l-3-2" fill="#231f20"/></svg>