<svg xmlns="http://www.w3.org/2000/svg" width="220" height="220" viewBox="0 400 220 220"><path d="M178.66 558.373c0-3.845-29.988-6.92-66.897-6.92-36.91 0-66.898 3.075-66.898 6.92 0 3.075 29.988 6.151 66.898 6.151 36.909 0 66.898-3.076 66.898-6.151" opacity=".1"/><path d="M174.816 406.122s-2.307-10.765-29.22 19.224l.769 1.537a75.356 75.356 0 0 0-69.205 0l.77-1.537c-26.914-29.99-29.22-19.224-29.22-19.224-9.997 21.53-3.845 47.674-.77 59.977a52.288 52.288 0 0 0 0 6.921c0 18.455 9.228 34.602 23.838 45.368a29.989 29.989 0 0 0 0 5.382c0 19.224 17.685 34.603 39.985 34.603 22.299 0 39.985-15.38 39.985-34.603l-.77-5.382c15.38-10.766 24.607-26.913 24.607-45.368a51.52 51.52 0 0 0-.77-6.92c3.846-12.304 9.997-38.448 0-59.978" fill="#fff"/><path d="M69.47 523.77l.77-4.613a58.44 58.44 0 0 1-23.838-53.058c-2.306-7.689-5.382-19.992-5.382-33.064 0-9.227 1.538-18.455 5.382-27.682a4.614 4.614 0 0 1 1.538-1.538l3.076-1.538c4.614 0 12.303 4.614 27.682 21.53 9.227-4.613 20.761-6.92 33.065-6.92 12.303 0 23.068 2.307 33.064 6.92 15.379-16.916 22.3-21.53 26.913-21.53 2.307 0 3.076.77 3.845 1.538l.769 1.538c4.613 9.227 5.382 18.455 5.382 27.682 0 13.072-2.307 25.375-4.613 33.064v6.921c0 18.455-9.228 35.371-23.838 46.137v4.613c0 19.993-18.454 36.14-41.522 36.14-23.069 0-42.292-16.147-42.292-36.14zM50.248 406.89c-3.845 8.46-5.382 17.687-5.382 26.145 0 13.072 3.075 25.375 5.382 32.296v.768a50.75 50.75 0 0 0-.769 6.921c0 17.686 9.227 33.833 23.837 43.83l.77.769v1.538a28.45 28.45 0 0 0-.77 4.613c0 9.227 4.614 16.917 11.535 23.068 6.92 6.152 16.147 9.228 26.913 9.228 10.765 0 19.992-3.076 26.913-9.228a29.989 29.989 0 0 0 10.765-27.681v-1.538l.769-.77a54.595 54.595 0 0 0 23.068-50.75v-.768c2.307-6.921 5.383-19.224 5.383-32.296 0-8.458-1.538-17.686-5.383-26.144l1.538-.77 1.538-.768-1.538.769-1.538.769a.769.769 0 0 0 0-.77h-1.538c-1.538 0-9.227 3.077-23.837 19.993l3.076 5.383-5.383-3.076c-9.996-5.382-21.53-7.69-33.833-7.69-12.304 0-23.838 2.308-33.834 7.69l-5.383 3.076 3.076-5.383c-15.379-16.916-22.3-19.992-24.606-19.992l-.769.769" fill="#231f20"/><path d="M102.535 532.997a7.69 7.69 0 0 0-3.076 0c0-3.075-3.075-6.151-6.151-6.92-3.845-.769-7.69.769-9.227 3.845a7.69 7.69 0 0 0-2.307-.77c-4.614-.768-8.459 2.308-9.228 6.921a8.458 8.458 0 0 0 2.307 6.92c-1.538 8.46 3.845 15.38 11.534 16.917 7.69 1.538 15.38-3.075 16.917-10.765a7.69 7.69 0 0 0 6.152-6.92c.769-3.845-2.307-8.459-6.92-9.228" fill="#fff"/><path d="M86.387 562.217a16.148 16.148 0 0 1-13.072-18.454 9.996 9.996 0 0 1-3.075-6.92l.769-1.539a9.996 9.996 0 0 1 13.072-7.69 9.996 9.996 0 0 1 16.916 3.846h1.538c5.383.769 8.459 4.613 8.459 9.996a9.996 9.996 0 0 1-6.152 9.227 16.148 16.148 0 0 1-18.455 11.534zm-9.996-16.147a12.303 12.303 0 0 0 13.072 12.303c5.383 0 10.765-3.845 12.303-9.997v-.769l.77-.769a6.152 6.152 0 0 0 4.613-4.613v-.77c0-3.075-1.538-6.15-4.614-6.15v-2.308 2.307a6.152 6.152 0 0 0-1.538 0h-3.075v-2.307c-.77-2.306-2.307-4.613-5.383-5.382a6.152 6.152 0 0 0-.769 0c-2.307 0-4.614 1.538-5.383 3.076l-1.537 2.306-1.538-1.537a6.152 6.152 0 0 0-1.538-.77 6.152 6.152 0 0 0-1.538 0c-3.076 0-5.383 2.307-6.152 5.383a6.152 6.152 0 0 0 0 .77 6.152 6.152 0 0 0 2.307 4.613l.77.769v1.538a13.072 13.072 0 0 0-.77 2.307" fill="#231f20"/><path d="M95.615 549.914c-.77 3.845-4.614 6.152-8.459 5.383a7.09 7.09 0 0 1 3.076-13.841c3.076.769 6.152 4.614 5.383 8.458M84.08 537.611c0 2.307-2.307 3.845-4.614 3.845-2.307-.77-3.845-3.076-3.076-5.383a3.92 3.92 0 1 1 7.69 1.538m11.534-3.076c-.77 2.307-2.307 3.845-4.614 3.076a3.92 3.92 0 0 1 1.538-7.69c2.307 0 3.076 2.308 3.076 4.614m9.996 7.69c-.769 1.538-3.076 3.076-5.383 3.076a4.299 4.299 0 0 1 1.538-8.459c2.307.77 3.845 3.076 3.845 5.383" fill="#fab5d5"/><path d="M120.99 532.997a7.69 7.69 0 0 1 3.076 0c0-3.075 2.306-6.151 6.151-6.92 3.845-.769 6.92.769 8.459 3.845a7.69 7.69 0 0 1 3.075-.77c3.845-.768 8.459 2.308 9.228 6.921 0 2.307-.77 5.383-2.307 6.92.769 8.46-3.845 15.38-12.303 16.917-6.92 1.538-14.61-3.075-16.148-10.765a7.69 7.69 0 0 1-6.152-6.92c-.769-3.845 2.307-8.459 6.92-9.228" fill="#fff"/><path d="M118.683 550.683a9.996 9.996 0 0 1-6.152-7.69 9.996 9.996 0 0 1 0-1.537 9.996 9.996 0 0 1 9.228-9.996h.769c.769-3.845 3.844-6.92 7.69-7.69a9.227 9.227 0 0 1 1.537 0c3.076 0 6.152 1.538 7.69 3.845a9.996 9.996 0 0 1 1.537 0 9.227 9.227 0 0 1 2.307-.77c4.614 0 8.459 3.846 9.228 8.46a9.996 9.996 0 0 1-2.307 8.458 16.148 16.148 0 0 1-13.072 18.454 16.917 16.917 0 0 1-3.076 0c-6.92 0-13.072-4.613-15.379-11.534zm2.307-15.379a6.152 6.152 0 0 0-4.614 6.92 6.152 6.152 0 0 0 4.614 4.614l.769.77v.768a12.303 12.303 0 0 0 14.61 9.997 12.303 12.303 0 0 0 9.996-14.61v-1.538l.769-.77a6.152 6.152 0 0 0 2.307-4.613l-.77-.769a6.152 6.152 0 0 0-6.92-5.382 6.152 6.152 0 0 0-1.538.769l-2.306 1.537-.77-2.306a6.152 6.152 0 0 0-6.15-3.076c-3.077.769-5.384 3.076-5.384 5.382v2.307h-2.306a5.383 5.383 0 0 0-1.538 0h-.77v-2.307 2.307" fill="#231f20"/><path d="M127.91 549.914c.77 3.845 3.845 6.152 7.69 5.383a7.016 7.016 0 0 0-2.307-13.841c-3.845.769-6.152 4.614-5.383 8.458m10.766-12.303a4.299 4.299 0 1 0 8.458-1.538 4.299 4.299 0 1 0-8.458 1.538m-10.766-3.076c0 2.307 2.307 3.845 4.614 3.076a3.92 3.92 0 0 0-1.538-7.69c-2.307 0-3.845 2.308-3.076 4.614m-9.996 7.69c.769 1.538 2.307 3.076 4.614 3.076 2.307-.77 3.844-2.307 3.844-4.614a4.299 4.299 0 1 0-8.458 1.538m4.614-57.67c0 3.075-6.92 9.995-10.765 9.995-3.845 0-11.535-6.92-11.535-9.996 0-2.307 5.383-3.845 11.535-3.845 6.151 0 10.765 1.538 10.765 3.845" fill="#fab5d5"/><path d="M104.073 492.244c-3.076-3.076-4.614-5.383-4.614-7.69 0-2.307 1.538-3.845 3.845-4.614l8.459-.768 8.458.768c2.307.77 3.845 2.307 3.845 4.614s-2.307 4.614-4.614 7.69c-2.307 1.537-5.383 3.844-7.69 3.844-3.075 0-5.382-2.307-7.689-3.844zm13.841-2.307c2.307-2.307 3.845-4.614 3.076-5.383l-1.538-1.538-7.69-.769-7.689.77-2.307 1.537 3.845 5.383 6.152 3.844 6.151-3.844" fill="#231f20"/><path d="M129.448 519.925c-3.076 7.69 0 15.38 9.228 19.224 9.227 3.076 16.147-1.538 19.223-9.227 2.307-7.69 0-15.38-9.227-19.224-9.228-3.076-16.148 1.538-19.224 9.227" fill="#fff"/><path d="M144.827 541.456l-6.92-.77a16.148 16.148 0 0 1-9.997-21.53c2.307-6.92 7.69-11.534 14.61-11.534l6.92 1.538a16.148 16.148 0 0 1 9.997 21.53c-2.307 6.921-7.69 10.766-14.61 10.766zm-14.61-16.148c0 4.614 3.076 9.227 9.227 11.534l5.383 1.538c5.383 0 9.227-3.845 11.534-9.227l.77-4.614c0-5.382-3.077-9.227-9.228-11.534l-5.383-1.538c-5.382 0-9.227 3.845-11.534 9.227l-.769 4.614" fill="#231f20"/><path d="M132.524 536.073l3.845-10.765 3.075.769-3.844 10.765-3.076-.769m9.227 3.076l3.845-9.996 3.076.769-3.845 10.765-3.076-1.538" fill="#231f20"/><path d="M94.077 519.925c2.307 7.69 0 15.38-9.227 19.224-9.228 3.076-16.148-1.538-19.224-9.227-3.076-7.69 0-15.38 9.227-19.224 9.228-3.076 16.148 1.538 19.224 9.227" fill="#fff"/><path d="M64.088 530.69l-1.538-6.15c0-6.152 3.845-12.304 11.534-15.38l6.92-1.538c6.921 0 12.304 4.614 14.61 11.535l-1.537.768-1.538.77c-2.307-5.383-6.152-9.228-11.534-9.228l-5.383 1.538c-6.151 2.307-9.227 6.152-9.227 11.534l.769 4.614c2.307 5.382 6.151 9.227 11.534 9.227l5.383-1.538c6.151-2.307 9.227-6.92 9.227-11.534l-.769-4.614 1.538-.769 1.538-.768 1.538 6.151c0 6.152-4.614 12.303-11.535 15.379l-6.92.769c-6.92 0-12.303-3.845-14.61-10.765" fill="#231f20"/><path d="M84.08 526.077l3.076-.769 3.845 10.765-3.076.77-3.844-10.766m-9.228 3.845l2.307-.77 3.845 9.997-2.307 1.538-3.845-10.765m70.743-47.675l22.3-6.151.768 3.075-22.299 6.152-.769-3.076m1.538 12.303v-2.306l7.69.768 7.689.77v3.075l-15.38-2.307m-92.272-15.379l.769-3.075 22.3 6.151-.77 3.076-22.3-6.151m5.383 14.61a238.372 238.372 0 0 0 16.148-1.538v2.306l-16.148 2.307v-3.076" fill="#231f20"/><path d="M54.092 458.41s-8.459-13.84-4.614-37.678c0 0 9.996 6.92 13.072 23.068 0 0-5.382 4.614-8.458 14.61m115.341 0s8.459-13.84 4.614-37.678c0 0-9.996 6.92-13.841 23.068 0 0 5.383 4.614 9.227 14.61" fill="#fab5d5"/><path d="M87.156 459.179c-4.613 0-9.227 1.538-12.303 6.152l-2.307-2.307a18.455 18.455 0 0 1 29.22 0l-2.307 2.307c-3.075-4.614-7.689-6.152-12.303-6.152m48.444 0c-4.614 0-9.228 1.538-12.303 6.152l-2.307-2.307a18.455 18.455 0 0 1 29.22 0l-2.307 2.307c-3.076-4.614-7.69-6.152-12.303-6.152m-10.765 41.523c-1.538 1.538-4.614 3.076-7.69 3.076-1.538 0-3.845 0-5.382-1.538-2.307 1.538-3.845 1.538-5.383 1.538l-6.152-1.538a14.61 14.61 0 0 1-1.537-1.538h-.77l-1.537 1.538c0 .769 3.844 4.613 9.996 4.613 1.538 0 3.076 0 5.383-1.537 1.537 1.537 3.844 1.537 5.382 1.537 6.152 0 9.996-3.844 9.996-4.613l-2.306-1.538" fill="#231f20"/><path d="M45.97 604.862v1.614l-.27.27v.806l-.268.538.269.269-.27.269-.268.269q0 .538-.538.807l-.27.537-.268.27-.269.268-.269.27-.538.268q.27 0 0 0l-.269.27-.538.268-1.076.538q-.537 0-.806.538h-.807v.269H37.9l-.538.269h-.538l-.269.269h-.538l-.268.269h-6.455l-.538.269v-.27h-.538l-.269.27-.538-.27h-.538l-.269-.268h-2.42l-.538-.27h-.538l-.269-.268h-.538l-.538-.27h-1.076l-.269-.268h-.268l-.27-.269h-.537l-.807-.538-.27-.807v-.538q0-.538.539-.806h.807l.538.268.268-.268 1.076.537h.27l.268.27h.807v-1.076h.269l-.269-.807v-1.614l-.269-.269v-1.614l-.269-1.075v-1.345l-.269-1.076v-2.958l-.269-.538v-2.152l-.269-.538v-3.227l-.269-.538v-1.076l-.269-.807-.269-.806v-1.883l-.269-.538v-1.076q0-.538-.537-.807l-.27.27h-.806l-.538.268h-.538l-.538.27h-1.345l-.538-.539v-.269l-.269-.538.27-.269v-.268l.537-.27.538-.268.27-.27.537.27.269-.27h.538l.538-.268h.538l.807-.27.806-.268h.538l.27-.27h1.075l.269-.268 1.076-.269h1.882l.27-.269h2.689l.269-.269.269.269h4.572l.538.269h1.345l.806.269h.27l.268.269.27.269h.537l.269.269h.538l.538.538.269.269 1.345.806.268.27v.268l.27.538.268.27.538.806.27.269-.27.538.27.538v.269l.268.538v1.613l-.269.27v1.344l-.269.538-.269.538v.269l-.269.269-.269.538-.269.538-.537.268-.27.538-.537.27-.27.268-.537.538-.269.27q.269.537.807.537l1.076.269.537.269.27.269v.269l.537.269h.27l.537.538h.27v.269l.268.269.538.537v.538l.538.538v.27l.269.268q0 .538.538.807l.269.538.269.538v.538l.269.269zm-5.917-15.867v-.807l-.27-.538v-.538l-.268-.538-.27-.538-.268-.269-.269-.269h-.269v-.269l-.538-.269-.269-.269h-.538v-.269l-.538-.269-.538-.269h-.806l-.538-.268h-4.841l-1.076-.27-.538.27-.269-.27h-1.345l-.538.27h-.806l-.807.268h-.538l-.538.27h-.538v2.958l.269.538v.538l.269.538v.537l.269.538v.538l.269.538v.807l.269 1.076-.27.807.27 1.075.269 1.345v.538l.269.538h2.151l.27-.269.268.269.538-.269h.538l.269-.269h.538l.269-.269h.807l.537-.269h.538l.27-.269h.537l.538-.269v.27l.269-.27.538-.269h1.076l.538-.269.269-.269h.269l.537-.269.538-.268.538-.27.27-.268.268-.27.269-.268.538-.27v-.268l.269-.27.269-.537.269-.269v-.807l.269-.538.269-.269zm3.227 15.599v-.807l-.538-.27-.269-.268v-.27l-.538-1.344-.807-1.076-.268-.269-.27-.269h-.268q0-.269 0 0l-.27-.538-.537-.268h-.538l-.807-.27-.269-.268h-1.076l-.269-.27h-1.882l-.538-.268h-.807l-.269.269h-.807l-.538.269h-.538l-.806.269h-.807l-.27.269h-.537l-.807.268-.538.27-.538-.27-.538.27h-.538l-.537.268-.27 1.076v1.614l.27.269v1.882l.268.538v1.614l.27.807v1.614l.268.537v1.076l.27.27 1.344.268 1.345-.269.538.27h1.344l.538-.27h.538l.27.27h.537l.269-.27h2.42l.807-.269h.807l.538-.269.807-.269h.269l.538-.269h.807l.269-.269h.269l.269-.268.268-.27.27-.268.268-.27.807-1.075.538-.807.27-.538zm37.653-6.186v2.151l-.27.807-.268.807-.269.269v.538h-.269v.538l-.538.538-.269.806-.269.538-.538.27v.268l-.538.538-.268.538v.269h-.27l-.268.538h-.27l-.268.269v.538l-.27.269v.269h-.537v.269l-.27.537h-.268l-.538.538-.269.27-.269.268h-.269l-.538.27h-.269l-.269.268h-.268l-.538.538-.807.269-.538.269h-.807l-.538.269h-1.076l-.269.269h-5.11l-.806-.27h-1.883l-.807-.268h-.538l-.269-.269-.538-.269h-.269l-.807-.269-.537-.269-.538-.269h-.807l-.538-.538h-.538l-.269-.269-.538-.269h-.269l-.807-1.344-.806-.807-.27-.538-.268-.538-.27-.538-.268-.538-.27-.269v-.269l-.537-.538v-.537l-.269-.538v-.27l-.269-.806-.269-.807v-1.345l-.269-.269v-.807h-.269v-3.227l.27-.807v-.538l.268-.806v-.807l.269-.538v-.27l.269-.268v-.27l.269-.537v-.269l.269-.538v-.269l.269-.269h.269v-.538l.269-.269.269-.537.269-.27v-.268l.269-.27.537-.806.538-.27.27-.268.268-.538.27-.269v-.538l.806-.538.269-.538.538-.537h.538l.807-.538.538-.27.537-.268h.27l.268-.27.27-.268h1.075q.538 0 .538-.538h.807l.269-.269h.538l.538-.269h2.151l.538-.269h.807v-.269h.269l.538.27h1.076l.268.268h.27l.537-.269.27.269h.806l.27.269h.268l.807.269.538.269h.538l.538.269.269.269h.268l.27.269.537.269.27.538h.268l.538.269.269.537h.538l.269.538.538.27.807.806v.27l.269.268.269.269.268.269q0 .538.538.807v.538l.538.538.27.537v.27l.268.537.27.538v.27l.268.268.269.538v1.345l.269.269v.807l.269.806v1.883l.269.538zm-2.69-.807v-1.076l-.269-.269v-1.614l-.269-.269v-1.075l-.268-.807-.27-.538.27-.269-.538-.807-.27-.538-.268-.538-.27-.807-.268-.268-.27-.27v-.268l-.268-.27-.269-.268-.269-.27-.269-.537v-.269l-.538-.269-.538-.538-.807-.807-1.075-.269-.538-.538-.27.27-.806-.27-.538-.537-.807-.27h-.807l-1.344-.268-.538-.27h-1.076l-.538.27h-1.345l-.538.269-.806.269h-.538l-.538.268h-.27l-.537.27h-.269l-.269.268h-.538l-.538.538h-.538v.27l-.269.268-.538.27-1.075.806-.27.538q-.268 0 0 0l-.268.269-.27.538h-.268v.269l-.538.269v.269l-.538.269v.268l-.269.538q-.269 0 0 0l-.269.538-.269.538-.269.27v.537l-.538.538-.269.269v.807l-.268.538-.27.269v1.075l-.268.538v1.345l-.27.538v.807l.27.538v.806l.269.538v.538l.269.538v.807l.268.269v.269l.27.538h-.27l.538.538.27.807.268.537v.27l.27.537.268.27.27.268v.27l.268.537.538.538.538.538.269.269h.538l.538.269v.269l.537-.27.538.27.27.269h.806l.27.537h1.344l.807.27h.538l.269.268h5.916l.807-.269 1.345-.269 1.076-.268.269-.27.269-.268.538-.27h.269l.269-.268h.268v-.27l.27-.268.268-.27.27-.268.537-.538v-.269l.807-.538.269-.807h.269l.269-.538.538-.537.538-.538.269-.538v-.27h.269l.269-.537v-.538l.268-.269v-.538l.27-.269v-.538l.268-.538zm38.46.807v2.151l-.538.807v.807l-.269.269v.538h-.269v.538l-.538.538-.538.806v.538l-.537.27-.27.268-.268.538-.27.538-.268.269h-.27l-.268.538-.27.269-.268.538-.269.269v.269h-.269l-.269.269-.269.537-.807.538v.27h-.269l-.269.268h-.269l-.269.27h-.268l-.538.268-.807.538-.807.269-.269.269h-1.076l-.538.269h-1.075l-.27.269h-5.11l-.806-.27h-1.614l-.807-.268h-.538l-.538-.269-.269-.269h-.269l-1.075-.269-.27-.269-.537-.269h-.807l-.538-.538h-.807l-.269-.269-.269-.269h-.269l-1.075-1.344-.538-.807-.538-.538-.27-.538v-.538h-.268v-.538l-.269-.269-.269-.269-.269-.538v-.268l-.269-.27v-.806l-.269-.807-.269-.807-.269-.807v-1.076l-.269-.538v-.806l-.269-.27v-.537l.27-.538v-1.076l.268-.807v-.538l.27-.806v-1.345l.268-.27v-.268l.27-.27.268-.537v-.807l.269-.269v-.269h.269l.269-.538v-.269l.538-.537v-.27l.269-.268v-.27q.538-.268.538-.806l.538-.27.269-.268.268-.538.27-.269.268-.269v-.269l.538-.538.27-.538.806-.537h.538l.538-.538.807-.27.538-.268.269-.27.268-.268h1.345l.538-.538h.538l.538-.269h.538l.269-.269h2.42l.27-.269h.806l.269-.269h.269l.269.27h1.076l.269.268h.538l.537-.269v.269h.807l.538.269 1.076.269.269.269h.538l.538.269.538.269h.269l.269.269.268.269.538.538h.27l.537.269.27.537h.537l.269.538.538.27q0 .537.538.806l.269.27v.268l.269.269.269.269.538.807.269.538.537.538v.537l.27.27.268.537v.807l.27.27.268.537v.807l.27.538v1.076l.268.806v.807l.27.538v1.345l.268.269zm-2.69-.807v-.538l-.268-.538v-1.345l-.27-.269v-.806l-.268-.807v-.807l-.27-.538v-.269l-.268-.807-.27-.538-.268-.538-.27-.807-.268-.268-.269-.27-.269-.268v-.27l-.269-.268-.269-.27-.269-.537-.269-.269-.538-.269-.269-.538-1.075-.807-.807-.269-.538-.538-.538.27-.807-.27-.538-.537-.538-.27h-1.075l-1.076-.268-.807-.27h-1.076l-.269.27h-1.345l-.806.269-.538.269H96.8l-.807.268h-.269l-.269.27h-.269l-.538.268h-.538l-.269.538h-.538l-.268.27v.268l-.538.27-1.076.806-.27.538h-.268v.269l-.269.538h-.269l-.269.269-.269.269-.269.269-.269.269v.268l-.269.538h-.269l-.269.538v.538l-.537.27v.537l-.27.538-.268.269-.27.538v.269l-.268.538v.806l-.27.538v.538l-.268.27v1.613l-.27.807.539.538v1.882l.269.538v.538l.269.269v.269l.269.269v.538l.269.538.269.807.268.537.27.27.268.537v.27l.27.268v.27l.268.537h.27l.268.538q.538 0 .538.538l.269.269h.807l.269.269.269.269.538-.27.269.27.269.269h.806l.538.537h1.345l.538.27h.807l.269.268h5.917l.537-.269 1.345-.269 1.076-.268.269-.27.538-.268.269-.27h.269l.269-.268h.269l.269-.27v-.268l.537-.27.27-.268.268-.538.27-.269.537-.538.538-.807h.27l.268-.538.269-.537h.269l.269-.538.269-.538.269-.27.269-.537.269-.538v-.538l.269-.269v-.269l.269-.538v-.807l.269-.537zm36.04 14.523l.269.269h-.27v.269l-.268.269-.27.269h-.268l-.538.269h-1.345l-.538.269-.807-.27-.269.27h-1.344l-.807.269h-.27l-.537-.27-.538.27h-1.345l-.538.269h-2.689l-.269-.27-.538-.268v-.538l-.269-.538.538-.269.269-.269.807-.269h2.151l.27-.538v-.269l-.27-.269-.268-.538-.538-.537v-.27l-.27-.268-.268-.538-.27-.27-.268-.537v-.27l-.27-.268v-.269l-.806-1.345v-.538l-.269-.269v-.268l-.269-.27-.538-1.075-.269-.807-.538-.807-.537-.538v-.538l-.538-.538-.538-.806-.27-.27-.268-.268-.27-.27v-.537l-.537-.538-.269-.538-.269-.538v-.269l-.538-.269-.269-.269-.269.27-.538.268-.269.538-.269.269-.268.269h-.27l-.268.269v.538h-.538l-.27.538-.537.269-.269.269-.269.269v.268l-.807.538-.538.538v.27l-.269.268-.269.27v.268l-.538.269v.269l-.537.269v5.379l.269.269v2.151l.268.538v.538h.538l.807-.269h.538l.538-.269h1.076l.807.807v.807l-.538.538-.27.269-.806.269h-.538l-.269.269h-.538l-.538.269h-2.42l-.807.269h-.538l-.269.269h-.538l-.269.269h-.269l-.538.269-1.075-.27-.27-.268-.268-.538-.27-.538.27-.807h.269l.269-.269h.806l.538-.269h.807l.27-.269h.268l.269-.269v-2.151l-.269-.27v-4.303l-.269-.537v-2.959l.27-.269-.27-.807v-4.84l-.269-.27.27-.538v-.269l-.27-.537v-2.69l.27-1.076h-.27v-.269l.27-1.075-.27-.538v-.538l.27-.538-.27-.538v-2.69l-.269-1.075-.269-.538h-1.344l-.27.269h-1.344l-.27-.27-.268-.268-.269-.27v-.537l-.269-.538.269-.269.269-.269.807-.269h5.11l.538.27.269-.27h2.151l.538-.269.538.27.269-.27h1.076l1.076.27.537.806v.269l.27.538-.538.269-.27.269v.269h-2.958l-.538.269h-2.42l.269.807v2.42l.269 1.614-.27 1.345.27.806-.27.807v2.959l.27 1.075v4.304h.269l.269-.27.268-.268h.27v-.538h.537l.538-.807.27-.538h.268v-.269l.807-.538.269-.269.538-.807.269-.268.807-.538.269-.538.806-.807.807-.27.27-.537.268-.269.538-1.076 1.076-.807v-.537l.538-.538.269-.538.538-.27.537-.268.27-.538.268-.269.27-.269v-.269l.537-.269.27-.269.268-.269.269-.269.269-.538h.269l.269-.269v-.268l.538-.27v-.537h.269l-.27-.27h-2.958l-.269-.268-.269-.27v-.268l-.268-.27v-.537l.537-.269.538-.538h4.572l.538-.269.538.27h5.38l.268.268h.538l.269.27.269.268v.269l.269.807-.27.269-.268.269h-.269l-.538.269h-2.42l-.538-.27-.27.27h-1.075q-.807 0-.538.538l-.807.269v.537h-.269v.27l-.538.268-.269.27-.269.537-.268.27-.27.268h-.268v.538h-.27l-.268.269v.269l-.538.269-.27.269-.268.538-.269.269-.538.269-.269.537-.269.27h-.269l-.538.537-.269.807-.537.807-.538.269-.27.269v.269l-.268.269-.27.269-.268.269-.27.269.539.538.538.806.269.538.538.27v.806l.537.269v.538h.27l.268.269v.269l.27.538.537.269.27.538.268.537.269.538.269.538.269.27.269.268v.27l.269.268v.538l.538.538v.538l.538.807v.806l.537.27-.268.268.268.27.538.537v.27h.27v.537l.268.269.27.807.268.269.538.538.269.538.269.268.269.27.269.537.269.27.269.268h.538l.806-.269h.807l.538-.269h.807l.269-.269h1.076l.269.27.538.268h.269l.269.538zm23.936-6.993l-.269.27v1.882h-.269l-.269.807-.269.538-.269.269v.269l-.269.269-.269.269-.537.537-.27.27h-.537v.268l-.27.27h-.537l-.27.268-.806.538h-.269l-.269.27-.807.268h-.807l-.537.269h-.807l-.538.269h-.807l-.538.538h-3.765l-.807-.27h-.538l-.538-.268h-.538l-.538-.269h-1.075l-.538-.269-.538-.269-.538-.269-.538-.269h-.807l-.538-.269-.269-.538-.269-.269-.269-.269-.806-.269-.807-.537-.27.537v2.152l-.268.269v.807l-.27.269-.268.269h-.807l-.807-.27-.538-.537v-1.076l.27-.269v-2.42l.268-.27v-1.075l.27-.538.268-.538v-2.151l-.269-.807.27-.538v-.27l.268-.268h1.614l1.076.807v1.344l-.27.807-.268.807.538.538h.268l.538.538.538.269.27.269.268.269.538.269.269.269q.269.538.807.538t.807.537h.538l.269.27h.537l.27.268h.537l.538.27h.538l.807.268.269-.269.538.27h2.69l.806-.27h.538v-.269h.807l.269-.269h.538l1.075-.269.807-.268h.27l.268-.27.538-.268q.538-.27.538-.807h.538l.269-.27.269-.268v-.27l.538-.537.269-.269v-1.076l.269-.538-.27-.537v-.807l-.537-.538-.538-1.076-.538-.807-.269-.269h-.269v-.269l-.269-.269-.807-.807-.538-.269h-.806l-.538-.268h-.807l-.27-.27-.537.27-.538-.27-.538-.268h-1.345v-.27h-1.613l-.538-.268h-.27l-.806-.538h-.807l-.269-.27h-.269l-.269-.268h-1.344v-.269h-.538l-.27-.269-.537-.269h-.27l-.537-.269-.538-.269-.269-.269h-.269l-.269-.269-.538-.269-.269-.269-.269-.269-.268-.268h-.538l-1.076-1.076v-.27l-.27-.268-.268-.27-.269-.537-.269-.269v-1.345l-.269-.538v-1.344l.269-.27v-.268l.269-.807v-.269l-.269-.269.269-.269h.269l.269-.538.269-.538.538-.269v-.269l.538-.269.538-.269.268-.268v-.27l.538-.268.807-.538.807-.538h.269l.538-.27 1.076-.537.538-.269.537-.269h.538l.27-.269.268.27.538-.27h.538l.807-.269h1.883l.806.27h2.69l.538.268h1.613l.27.269h.268l.538.269.807.269.27.269.268.269.807.269.269.538h.538l.269-.538.269-.27v-.537l.269-.538.268-.269h.538l.807.269.27.538h.537v.538l-.269.538v.807l-.538 1.075v1.345l-.269.538v2.42l-.269.538v.807l-.269.27v.268l-.269.538-.269.269v.269h-.806l-.27-.269h-.537v-.269l-.538-.269v-.538l.269-.807v-.538l.269-.537v-2.152l-.27-.269v-.269l-.268-.269-.269-.269-.269-.538-.269-.269-.269-.269-.269-.269-.269-.268h-.269l-.807-.538-.537-.27h-.538l-.27-.268h-4.034l-.268-.27h-1.345l-.538.27v-.27l-.807.27-.538.269h-.807l-.538.269h-.269l-.806.538-.27.268-.806.27v.268l-.807.27h-.269l-.807.806-.807.807-.807 1.076v1.345l-.268.268v.538q0 1.345.537 1.883l.807 1.076 1.076.538.538.538h.269v.269l.807.269.269.268.269.27h.269l.537.268h.807l1.076.27 1.076.537h1.345l.269.27.806.268h.27v-.269h.537v.27h1.614l.538.268h.538l.269.269h1.344l.807.269h.27l.537.538.807.269.269.269.269.269.807.538.269.537.538.27.537.268.27.807.537.27.27.268v.27l.268.268v.269l.27.538.268.538.27.538v1.075zm11.027 7.531v.269l-.269.269-.269.269-.269.269h-.269l-.269.269h-5.648l-1.076.269-1.075.269-.27-.27-.268-.268-.27-.807v-1.076l.539-.269.807-.269h.806l.538-.269q.538.27.807-.269v-2.151l-.269-.538.27-1.076v-.807l-.27-.538v-.538l.27-.538v-3.765l.268-.269v-1.882l-.269-.27v-.537l.27-.27-.27-.806v-.807l.27-.269-.27-.807.27-1.075-.27-.27-.269-.537.27-.27v-1.075l.268-.538-.269-.538v-.538l.27-.269v-2.151l-.27-.807v-.538l.27-.538-.27-.269v-.538q-.269-.538.27-.807l-.27-.538.27-.806h-3.497l-.27.269h-1.075l-.269-.27h-.269l-.269-.268h-.269v-.27l-.269-.268v-1.076l.27-.538h.268l.27-.269h.537l.269.27h2.42l.538-.27.807.27v-.27h5.38l.806.538.269.269v.538l.269.269-.269.269-.269.538-.538.269h-1.613l-.538.538v1.882l.269.27-.27 1.075v3.765l-.268.27.269.268v.269l-.27.538.27.269v.538l-.27.269v1.613l.27.27v.537h-.27l.27.27v1.075l-.27.538.27.269v4.034l-.27.538.27.538v1.883l-.27.806.27.538v.807l-.27.269v3.765l.27.27v.268h1.075l.538-.269h.27l.268.27h.538l.538.806zm25.55-4.034l-.269.807.269.806h-.269l-.269.27-.269.268-.269.538h-1.076l-.269.27h-.806l-.538-.27-.27.27-.268-.27-.538.27h-3.227l-.27-.27h-.537l-.27.27-.268-.27-.538.27h-3.227l-.27.268v-.269h-.806l-.538.27h-2.42l-.539.268h-2.151l-.807-.269-.807.27-.269-.27h-2.42l-.538-.807v-1.076h.269l.538-.537h.269l.269-.27h2.42v-6.992h-.269l.269-.538v-4.572l.269-.269v-.807l.269-.807-.269-.269v-.269l.269-.537v-1.614l.269-.538v-6.993l-.27-.269.27-.269-.27-.806v-.807h-.806l-.269.269h-1.076l-.538-.27-.268-.268h-.27l-.268-.538v-.27l-.27-.537.27-.269v-.269l.538-.269v-.269h.537l.27.27h.806v-.27h5.917l.538-.269.807.27.807-.27h1.075l1.345.27h1.076l.538-.27.269.27h2.42l.538-.27.807.27h1.345l.807-.27h.807l.537.27.27.537.268.269.27.269v1.076l-.27 1.076.27.537v1.614l.268.27v.268l-.269.269.27.269v1.614l-.27.538.27.537-.27.538v.27l.27.268-.27.27v.268l-.538.27-.538.268h-.537l-.27-.269h-.537l-.27-.538-.268-.538v-1.613l.269-.807v-2.152l-.27-.269.27-.807v-1.344l-.538-.27-.27.27-.537-.27h-3.765l-.807-.268-.538.269h-2.69l-.268-.27-1.076.27-.27-.27h-1.344l-.269.27h-1.076v5.11l.27.538-.27.269.27.537v1.076l-.27.538v.807l.27.269v.538l-.27.807-.269.269v2.151h2.69l1.076.27 1.075-.27.807.27.807-.27.27-.269.268-.269v-2.69l-.269-.806v-.538l.27-.269v-.538h1.075l.269.27.538.268.269.27v.537l.269.269v.538l.269.269v.807l-.27.806.27.538v2.152l.269.807v1.076l-.27.537.27.538v1.076l-.27.807-.537.807h-.27l-.268.269-.538-.27h-.538l-.269-.537q-.269 0 0 0l-.269-.269-.269-.269.27-.807v-2.151h-.27l-.538.269h-.538l-.269-.27h-.269l-.537-.268-.27.269-.537-.27h-2.69l-.269.27h-.807l-.269.269v7.8l.27.537v.269l-.27 1.076v.807h.538l.807-.27h4.841l.538-.268h.807l.538-.27h.807l.807.27h2.69l.268-.27.538.27.269-.27.538.27h.807l.269-1.076-.27-.807v-4.034l-.268-.538v-1.076l.269-.269.269-.269.806-.269.27.27.537.268.27.27.268.537v1.076l.27.538v1.344l.268.538v1.614l.269.269-.269.807z" fill="#292327"/></svg>