<svg xmlns="http://www.w3.org/2000/svg" width="684" height="142" xmlns:xlink="http://www.w3.org/1999/xlink"><defs><path id="a" d="M38.5.5V57H.2V.5h38.3z"/></defs><g fill="none" fill-rule="evenodd"><path fill="#1D1C1B" d="M45 99.4c0 5-1.8 9-5.5 12.2-3.6 3.2-9.1 4.7-16.4 4.7-4 0-7.7-.3-10.8-1-3.2-.8-6.6-1.9-10.4-3.2V98.3c3.3 1.8 6.1 3.3 8.5 4.2 2.5 1 5 1.5 8 1.5 4.8 0 7.3-1.3 7.3-4 0-.9-.4-1.7-1.1-2.4a15 15 0 0 0-3.7-2.4c-1.7-.9-4-2-7-3.1a27.8 27.8 0 0 1-9.1-6.4 14 14 0 0 1-1.3-17.6c1.7-2.6 4.2-4.6 7.6-6.2 3.4-1.6 7.4-2.4 12.2-2.4A50.3 50.3 0 0 1 34.5 61a36.2 36.2 0 0 1 7.7 3v13.3a370.3 370.3 0 0 1-2.9-1.7 29.2 29.2 0 0 0-7.6-3 21.4 21.4 0 0 0-5.4-.8c-2.2 0-3.8.5-4.6 1.3-.8.9-1.2 1.8-1.2 2.6 0 1 .4 1.8 1.3 2.5.8.8 2.8 1.8 5.7 3 4.4 1.6 7.8 3.3 10.4 5 2.6 1.8 4.4 3.7 5.5 5.8 1.1 2 1.7 4.5 1.7 7.4m53.8 12.8a45.8 45.8 0 0 1-18.5 4.1c-14 0-21-6.8-21-20.5V74h-8.8v-3.4l26-26.5H79v16.5h18.5v13.4H79v17.6c0 2 .1 3.7.4 5a5 5 0 0 0 2.1 3.1 9 9 0 0 0 5.3 1.3c3.1 0 7.2-1.3 12.2-3.9v15.2zm163.2-48.8L255 83c-3-2.8-6-4.2-9-4.2a10 10 0 0 0-7 2.8 27 27 0 0 0-5.8 10.2v23.7h-19.5v-55h19.5v13.3c1.2-3.2 3.3-6.4 6.4-9.5 3.1-3.2 6.8-4.7 11-4.7 2.1 0 4 .3 5.7 1a44 44 0 0 1 5.8 3m69.3-3L294 140.3h-19.7l15.1-32.1-21.7-47.7h20.9l11.1 27.3 12.7-27.3zm88.2-.6l-24 56.6h-2.8l-17-45-17.2 45h-2.7L332 59.9h5.9l18.9 45.2L374.3 60h3.2l16.9 45.2L413.8 60zm10 21h36c-2-10.9-8-16.3-17.5-16.3-4.6 0-8.5 1.4-11.8 4.3a20.8 20.8 0 0 0-6.6 12m43 4.7h-43.8a23.2 23.2 0 0 0-.2 2.9c0 6.2 2.2 11.4 6.7 15.7 4.4 4.3 9.6 6.5 15.6 6.5 7 0 14-2.8 20.7-8.3v6.7a34 34 0 0 1-21.4 7.4 26 26 0 0 1-19.8-8.4 29.6 29.6 0 0 1-7.9-21.1 29 29 0 0 1 7.3-20.2c4.8-5.3 10.9-8 18.2-8 6.9 0 12.7 2.4 17.4 7.2a26.6 26.6 0 0 1 7.1 19.6m41 18.8V87.1c-7.6-.3-13.9 1-18.9 4-5 3-7.5 6.7-7.5 11.3 0 2.6 1 4.8 3.1 6.5 2.1 1.8 4.7 2.7 7.9 2.7 5 0 10.2-2.4 15.4-7.2m15.2 1.3v5c-5.1 3.8-8.8 5.8-11.2 5.8-1.4 0-2.3-.5-2.8-1.4-.6-.9-1-2.7-1.2-5.5a28.1 28.1 0 0 1-17.4 6.9c-4.1 0-7.7-1.4-10.6-4.1-2.9-2.8-4.3-6-4.3-10a16 16 0 0 1 8.4-14.2 50.4 50.4 0 0 1 24-6V75c0-7.6-4.2-11.3-12.4-11.3-5.2 0-10.9 2.3-17 7v-6c6.3-4 12.3-6 18-6 5 0 9.1 1.3 12.4 3.7 3.3 2.5 4.9 6 4.9 10.8v34.5c0 2 .4 2.9 1.3 2.9 1.1 0 3.8-1.7 8-5M579.1 60l-23.9 56.6h-3.5l-25.3-56.6h6l20.9 46.7 20-46.7zm10 21h36c-2-10.9-8-16.3-17.5-16.3-4.6 0-8.5 1.4-11.8 4.3a20.8 20.8 0 0 0-6.6 12m42.9 4.7h-43.7a23.2 23.2 0 0 0-.2 2.9c0 6.2 2.2 11.4 6.6 15.7 4.5 4.3 9.7 6.5 15.7 6.5 7 0 14-2.8 20.6-8.3v6.7a34 34 0 0 1-21.3 7.4c-8 0-14.6-2.8-19.8-8.4a29.6 29.6 0 0 1-7.9-21.1c0-8.1 2.4-14.9 7.3-20.2 4.8-5.3 10.8-8 18.2-8 6.8 0 12.6 2.4 17.4 7.2a26.6 26.6 0 0 1 7.1 19.6"/><g transform="translate(644 58.3)"><mask id="b" fill="#fff"><use xlink:href="#a"/></mask><path fill="#1D1C1B" d="M38.5 7L35 12.6C30.4 8.4 26.7 6.3 24 6.3c-5.6 0-11.5 5.3-17.8 15.9V57H.2V1.6h6V16h.1C13 5.7 19.5.5 25.8.5c3.6 0 7.8 2.2 12.7 6.5" mask="url(#b)"/></g><path fill="#1D1C1B" d="M480 24.5h-2.3v5.1h2.5c1 0 1.7-.2 2.2-.7.5-.4.8-1 .8-1.9 0-1.7-1-2.5-3.1-2.5zm-4.7 14.3V22.4h5.2c1.6 0 2.8.4 3.7 1.3 1 .8 1.4 2 1.4 3.4 0 1-.2 1.8-.7 2.5a4.1 4.1 0 0 1-2 1.6c-.8.3-2 .5-3.5.5h-1.7v7.1h-2.4zm15.5-14.4h-.7v5.2h.9c1.2 0 2-.1 2.4-.3a2.3 2.3 0 0 0 1-1 2.7 2.7 0 0 0 .4-1.3 2.5 2.5 0 0 0-.4-1.4 2.2 2.2 0 0 0-1.1-1l-2.5-.2zm-3 14.4V22.4h4a6 6 0 0 1 4 1.3c1 .8 1.4 1.9 1.4 3.3 0 1-.2 1.8-.7 2.5-.4.7-1.1 1.2-2 1.5l1.5 1.4 2.1 3.1c.6 1 1 1.7 1.4 2.1l.9 1.2h-2.8l-.7-1a2 2 0 0 0-.2-.3l-.4-.6-.8-1.2-.7-1.3-1.4-1.6-1-.9-1.7-.2h-.6v7.1h-2.4zm23-7l-2.6-5.9-2.4 6h5zm-3.4-9.5h1.7l7.3 16.5H514l-2.2-4.9h-7l-2 4.9h-2.4l7-16.5zm7 .1h13.7v2h-5.7v14.4H520V24.5h-5.6zm27.5 0h2.3v16.4h-2.3v-7.1h-9.2v7.1h-2.4V22.4h2.4v7.1h9.2zm14.6 9.5l-2.7-6-2.4 6h5zm-3.5-9.6h1.7l7.3 16.5h-2.4l-2.2-4.9h-7l-2 4.9H546l7-16.5zm23.8.1h2.2v16.4h-2.3V26.1l-5 6.3h-.5l-5-6.3v12.7h-2.4V22.4h2.2l5.4 6.8zm17 9.1h-2.2v5.2h2.3c1.3 0 2.1 0 2.6-.3.4-.2.8-.5 1-1a2.4 2.4 0 0 0 0-2.6c-.2-.5-.6-.8-1.2-1-.5-.2-1.4-.3-2.5-.3m-.2-7h-2v5h1.5c1.3 0 2.2-.3 2.7-.8s.8-1 .8-1.8c0-1.6-1-2.4-3-2.4m1.2 14.3h-5.6V22.4h4.3c1.4 0 2.4.2 3.2.6a4 4 0 0 1 1.7 1.5c.4.6.6 1.3.6 2.2 0 1.6-.8 2.7-2.5 3.4a5 5 0 0 1 2.9 1.5c.7.8 1 1.7 1 2.7a4 4 0 0 1-.6 2.3c-.4.6-1 1.2-2 1.6a7 7 0 0 1-3 .6m16-14.4c-1.8 0-3.4.6-4.6 1.8a6 6 0 0 0-1.8 4.5c0 1.7.6 3.2 1.8 4.4a6.3 6.3 0 0 0 4.6 1.7c1.8 0 3.3-.6 4.6-1.8a6 6 0 0 0 1.8-4.4c0-1.8-.6-3.2-1.8-4.4a6.2 6.2 0 0 0-4.5-1.8m-.1-2.2c2.5 0 4.6.8 6.3 2.4 1.7 1.6 2.5 3.6 2.5 6s-.8 4.4-2.5 6a9 9 0 0 1-6.5 2.4c-2.4 0-4.5-.8-6.1-2.4a8 8 0 0 1-2.5-6 8 8 0 0 1 2.5-6 8.7 8.7 0 0 1 6.3-2.4m19.8 2.2c-1.9 0-3.4.6-4.6 1.8a6 6 0 0 0-1.8 4.5c0 1.7.6 3.2 1.8 4.4a6.3 6.3 0 0 0 4.6 1.7c1.8 0 3.3-.6 4.5-1.8a6 6 0 0 0 1.9-4.4c0-1.8-.7-3.2-1.9-4.4a6.2 6.2 0 0 0-4.5-1.8m0-2.2c2.5 0 4.6.8 6.2 2.4 1.7 1.6 2.6 3.6 2.6 6s-.9 4.4-2.6 6a9 9 0 0 1-6.4 2.4c-2.5 0-4.5-.8-6.2-2.4a8 8 0 0 1-2.4-6 8 8 0 0 1 2.5-6 8.7 8.7 0 0 1 6.2-2.4m21 .2h3l-7.2 7.8 8.9 8.6H653l-8.4-8v8h-2.3V22.4h2.3V30zM662 32l-1.7-1a8 8 0 0 1-2.4-2c-.5-.7-.7-1.5-.7-2.3a4 4 0 0 1 1.3-3.2 5 5 0 0 1 3.5-1.2c1.4 0 2.6.4 3.8 1.2V26a5.4 5.4 0 0 0-3.8-1.7c-.8 0-1.4.2-2 .6-.4.3-.7.8-.7 1.3s.2 1 .6 1.4c.3.4 1 .9 1.7 1.3l1.8 1.1c2 1.2 3 2.7 3 4.6 0 1.3-.4 2.3-1.3 3.2-.9.8-2 1.2-3.4 1.2-1.7 0-3.1-.5-4.5-1.5v-3c1.3 1.6 2.8 2.4 4.4 2.4.8 0 1.4-.2 1.9-.6.5-.4.7-1 .7-1.5 0-1-.7-2-2.2-2.9"/><path fill="#FCE900" d="M137.5 59.3c1.7-1.1 2.8-2.8 3.8-4.6a67 67 0 0 0 2.2-3.7c.5-.6.8-1 1.2-1.2l.3-.2h1.3l.7-.5 2-1.8 1-1 .6-.4-.7-.4a15.7 15.7 0 0 0-1.4-.5 7.8 7.8 0 0 0-4.9-.4 6.5 6.5 0 0 0-1.8.9c-1.6 1-2.7 2.6-3.5 4.1l-.8 1.5-1.4 2.3c-.6.8-1 1.3-1.5 1.6a3.8 3.8 0 0 1-.8.4l-.3.1-.3 1c-.3.8-.5 2-.7 3l-.1.7-.2.9.7-.2c2-.3 3.5-.8 4.6-1.6M121.4 78l.3.6.4.8.5-.5c1.4-1.4 2.2-2.7 2.7-4 .7-1.9.6-4 .4-6l-.2-1.3-.2-3c0-.7 0-1.2.2-1.6l.2-.4c.1-.2.4-.4.8-.6h.2l.3-1 .5-2.6.3-1.3.2-.8-.8.2a9 9 0 0 0-5.6 3 6.5 6.5 0 0 0-1 1.7c-.6 1.8-.5 3.7-.4 5.4l.2 1.6.3 2.8c0 1 0 1.6-.2 2.1l-.5.9-.1.2.2.9 1.3 3m-1.6 19v.2l.7.6 2.8 1.6.7.4.6.4.1-.8c.3-2 .3-3.5 0-4.8-.6-2-2-3.6-3.3-5a182 182 0 0 0-2.9-3.3c-.4-.6-.7-1-.8-1.5a1.2 1.2 0 0 1 0-.4c0-.2 0-.6.3-1l.1-.1-.3-.9a35.8 35.8 0 0 0-1.6-3.7l-.4-.7-.5.6a9 9 0 0 0-2.8 5.6 6.5 6.5 0 0 0 .3 2c.5 1.9 1.7 3.4 2.8 4.6a56.3 56.3 0 0 0 3 3.3c.5.8.9 1.4 1 1.9l.2 1m18.4 18.6l.8-.1-.4-.7a9.4 9.4 0 0 0-5.6-5.3l-2.9-.7a82.4 82.4 0 0 0-1.3-.3l-3-.7a10.6 10.6 0 0 1-.4 0 4 4 0 0 1-1-.6 1.3 1.3 0 0 1-.3-.3 2 2 0 0 1-.3-1v-.2l-.8-.5c-.7-.5-1.5-1-2.4-1.4a82.7 82.7 0 0 1-1.1-.7l-.7-.4v.8a9 9 0 0 0 1 6.2c.4.6.8 1 1.4 1.5a9 9 0 0 0 2.5 1.4l2.5.7a66.4 66.4 0 0 0 1.6.3l2.7.6c1 .3 1.6.5 2 .9l.6.7.2.2h1l3.1-.3.8-.1m19 2.8c-1-.4-2-.6-3-.6-2-.1-4 .6-5.7 1.4a100.4 100.4 0 0 0-4 1.8l-1.6.3a1.4 1.4 0 0 1-.5 0l-.7-.7-.2-.1h-1a36 36 0 0 0-4 .4l-.7.1.4.7a9 9 0 0 0 4.5 4.4 6.5 6.5 0 0 0 2 .4c1.8 0 3.7-.6 5.2-1.3l1.5-.7 2.6-1.1c.9-.3 1.5-.5 2-.5l1 .2.3.1.7-.6c.8-.5 1.6-1.3 2.4-2l.5-.5.7-.6-.7-.4a16.8 16.8 0 0 0-1.7-.7m16-6a13.2 13.2 0 0 0-3.7 4.5l-.7 1.2-1.6 2.6c-.4.6-.7 1-1 1.2a1.4 1.4 0 0 1-.4.2h-1.3l-.7.5-2 1.8-1 .9-.6.5.7.3 1.3.6c1.9.7 3.5.8 5 .3a6.5 6.5 0 0 0 1.8-.8c1.6-1 2.7-2.7 3.5-4.1l.8-1.5 1.4-2.4c.6-.8 1-1.3 1.5-1.6a3.7 3.7 0 0 1 .8-.4h.3l.3-1 .7-3 .1-.8.2-.8-.8.1c-2 .4-3.4.9-4.5 1.6m16.1-18.7a35 35 0 0 1-.3-.6l-.4-.8-.5.6a11.2 11.2 0 0 0-2.7 4c-.7 1.9-.6 4-.4 5.9a106.7 106.7 0 0 0 .4 4.4c0 .7 0 1.2-.2 1.6a1.3 1.3 0 0 1-.2.4c-.1.2-.4.3-.8.5l-.2.1-.3 1-.6 2.6-.2 1.3-.2.7.8-.1a9 9 0 0 0 5.6-3l1-1.7c.6-1.8.5-3.8.4-5.4l-.2-1.7-.3-2.8c0-.9 0-1.6.2-2l.5-1 .1-.1-.2-1-1.3-2.9m8.6-8.3c-.5-1.8-1.7-3.3-2.8-4.6l-1.1-1.2-1.9-2c-.6-.8-1-1.4-1-2a3.9 3.9 0 0 1-.2-.9v-.3l-.7-.5-2.8-1.7a41.8 41.8 0 0 1-.5-.3l-.8-.4-.2.7c-.2 2-.2 3.5.2 4.9.5 2 1.8 3.6 3.2 5l.9 1 2 2.3c.4.6.7 1 .8 1.4v.4l-.3 1-.1.2.3.9 1 2.5.6 1.1.4.8.5-.6c1.1-1.3 2.7-3.2 2.8-5.7a6.4 6.4 0 0 0-.3-2M185.3 64c.5.1.9.3 1.1.5l.3.3c.2.2.3.5.3 1v.2l.8.5c.7.5 1.5 1 2.4 1.4l1 .6.8.4v-.8a9 9 0 0 0-1-6.2 6.4 6.4 0 0 0-1.4-1.5 9 9 0 0 0-2.5-1.3 19 19 0 0 0-2.5-.7l-1.6-.3-2.7-.6c-1-.3-1.6-.6-2-.9a3.8 3.8 0 0 1-.6-.7l-.2-.2h-1l-3.1.3h-.6l-1 .2.4.6c1 1.8 1.8 3 3 3.9.7.5 1.5 1 2.6 1.4 1 .4 2 .6 2.9.8l1.3.2 3 .7.3.2"/><path fill="#FECC00" d="M162.3 12.5c-2.6 0-5.1 1.3-7 3-2 1.6-3.5 3.6-4.7 5.8a31.2 31.2 0 0 0-1.5 3.3c-1.4-.8-2.9-1.5-4.4-2-2.8-1-6-1.3-8.9-.5-2.9.7-5.4 2.4-7.3 4.4-1.9 2-3.3 4.4-4 7 1.7-2 3.6-3.8 5.6-5 2-1.4 4.3-2.2 6.5-2.4 2.1-.2 4.3.2 6.4 1 2 .9 4 2.2 6 3.6l4-1.5a28.5 28.5 0 0 1 2-5.7c.8-2 1.8-3.7 3-5.2a10 10 0 0 1 4.7-3.2c1.9-.7 4-.6 6.4-.2a10.9 10.9 0 0 0-6.8-2.4"/><path fill="#E84E1B" d="M176.7 55.7c1 0 1.7.1 2 .4l.6.8.1.2.9.3 2.6.5 1.3.3.6.1v-.6c-.4-1.7-1-4-3-5.5a6.4 6.4 0 0 0-1.8-1c-1.7-.6-3.6-.6-5.3-.4a63.4 63.4 0 0 0-4.4.5c-1 0-1.7 0-2.2-.3a4 4 0 0 1-.9-.4l-.1-.2-.9.3-3 1.3-.6.3-.6.3.4.4c1.5 1.4 2.7 2.2 4 2.7 1.9.7 4 .6 6 .4l1.3-.2 3-.2m-51.1 12.2v.6l.1.8.6-.3c1.8-1 3-1.8 3.8-3 1.3-1.5 1.8-3.5 2.2-5.4a78.4 78.4 0 0 0 1-4.3 5 5 0 0 1 .7-1.5l.3-.3c.2-.2.5-.3 1-.3h.2l.5-.8a33.4 33.4 0 0 0 2-3.5l.3-.5-.7-.1c-1.6-.2-4-.3-6.1 1a6.3 6.3 0 0 0-1.5 1.4 12.2 12.2 0 0 0-2 5 66 66 0 0 0-1 4.3c-.2 1-.5 1.6-.8 2a3.8 3.8 0 0 1-.7.7l-.2.1v1l.3 3.1m-8.8 12c.4.8.8 1.7 1 2.5.4 1 .5 1.6.5 2.1 0 .3 0 .7-.2 1v.2l.5.7 2.1 2.5.4.4.6.6.3-.6c.8-1.8 1.3-3.2 1.3-4.6 0-2-.6-4-1.4-5.7l-.6-1.2c-.5-1-1-2-1.2-2.8l-.3-1.7V73l.7-.8.1-.2V71l-.3-2.7a75.3 75.3 0 0 1-.1-1.3v-.6l-.7.3a9 9 0 0 0-4.3 4.5 6.3 6.3 0 0 0-.4 2c0 1.8.6 3.6 1.3 5.2l.7 1.5m12.8 28.9l.9.2-.1-.7c-.4-2-.9-3.3-1.6-4.5a13.2 13.2 0 0 0-4.6-3.8l-1.1-.6c-1-.5-2-1-2.7-1.6-.6-.4-1-.8-1.2-1.1a1.4 1.4 0 0 1-.2-.4V95l-.5-.7-1.8-2-.9-1-.4-.4-.3.6c-.7 1.5-1.6 3.8-.9 6.1.2.7.5 1.3.9 1.9 1 1.5 2.6 2.6 4 3.4l1.5.8 2.4 1.5c.8.5 1.3 1 1.6 1.4.2.2.3.5.4.9l.1.2.9.3 3 .7.6.1m19.2 10.4l-.4-.4a11.2 11.2 0 0 0-4-2.8c-1.9-.7-4-.6-6-.3a156.7 156.7 0 0 0-4.3.4c-1 0-1.7-.1-2-.4l-.6-.9-.1-.2-.9-.2-2.6-.6a84.4 84.4 0 0 1-1.3-.2l-.6-.2v.7c.4 1.6 1 4 3 5.5a6.5 6.5 0 0 0 1.7 1c1.8.6 3.7.5 5.4.4l1.6-.2 2.8-.3c1 0 1.7 0 2.2.2l.8.5.2.1.9-.2 3-1.3.5-.3.7-.3zm15.4-2.5c-2 .6-3.5 1.9-5 3.2a72.4 72.4 0 0 0-3.3 3c-.5.4-1 .6-1.4.7h-.5c-.2 0-.6 0-1-.2l-.1-.1-.9.3-2.4 1-1.2.6-.6.3.5.4c1.2 1.2 2.4 2 3.5 2.4a6.6 6.6 0 0 0 2 .4 6.5 6.5 0 0 0 2-.3c1.8-.5 3.4-1.7 4.6-2.8l1.2-1.1 2.1-1.9c.8-.5 1.4-.9 1.9-1a4 4 0 0 1 1-.2h.2l.5-.7 1.7-2.7.2-.5.5-.8h-.7c-2-.4-3.4-.3-4.8 0m21-13.4l-.2-.9-.5.3c-1.8 1-3 1.9-3.8 3a13.1 13.1 0 0 0-2.2 5.5l-.3 1.3-.7 3c-.2.6-.4 1.1-.7 1.5a1.4 1.4 0 0 1-.3.3l-1 .3h-.2l-.5.7-1.3 2.4-.7 1.1-.3.6h.6c1.7.3 4.2.4 6.2-1a6.4 6.4 0 0 0 1.5-1.4c1.1-1.4 1.6-3.3 2-5l.3-1.6.6-2.7c.3-.9.6-1.5 1-2a3.8 3.8 0 0 1 .6-.6l.2-.2v-.9l-.3-3.1v-.6M194 92c-.4-.9-.8-1.8-1-2.6-.4-.9-.5-1.6-.5-2 0-.4 0-.7.2-1V86l-.5-.7L190 83l-.4-.4-.6-.7-.3.6c-.9 1.8-1.3 3.2-1.3 4.6 0 2 .6 4 1.4 5.8l.6 1.2 1.2 2.8.3 1.6a1.5 1.5 0 0 1 0 .5l-.7.8-.1.1v1l.3 2.6.1 1.3v.7l.7-.4c1.4-.8 3.5-2.1 4.3-4.4a6.5 6.5 0 0 0 .4-2c0-1.9-.6-3.7-1.3-5.2a56.6 56.6 0 0 0-.7-1.5m-6.2-19.5l2.6 1.6c.6.4 1 .7 1.2 1l.2.5v1.2l.5.7 1.8 2 .9 1 .4.5.3-.6c.7-1.5 1.6-3.8.9-6.2a6.2 6.2 0 0 0-.9-1.8c-1-1.5-2.6-2.6-4-3.5l-1.5-.8-2.4-1.4c-.8-.5-1.3-1-1.6-1.4a3.9 3.9 0 0 1-.5-1v-.1l-.9-.3-3-.7-.6-.1-.9-.2.1.6c.4 2 .9 3.4 1.6 4.6 1.2 1.6 2.9 2.8 4.6 3.7l1.1.7zm-55.6-57.2c1-.9 2-1.5 3.1-1.7 1.1-.3 2.2-.3 3.3 0 1 .1 2.3.5 3.4 1l3.7-2.4a15.9 15.9 0 0 1 .2-3.2c.1-1 .3-2.1.7-3 .3-1 .7-1.8 1.5-2.4.8-.7 2-1.2 3.3-1.5a5.8 5.8 0 0 0-4.3-.9 7 7 0 0 0-4 2.6 11.8 11.8 0 0 0-2.3 5 12.9 12.9 0 0 0-1.7-.2c-1.8 0-3.8.3-5.4 1.3a9.3 9.3 0 0 0-4.4 8.6 18 18 0 0 1 2.9-3.2M153 37.9c1 .4 2 .9 2.5 1.5.6.6 1 1.3 1.3 2.2l.6 3 4.2 1.8a15.9 15.9 0 0 1 2.6-1.8l2.7-1.3c1-.3 1.8-.4 2.7-.1.5.1 1 .3 1.5.7l1.6 1.1c0-1.3-.5-2.8-1.6-4a6.5 6.5 0 0 0-4.6-1.7c-1.6 0-3 .3-4.4.9l-.5.2-.3-.7a7.3 7.3 0 0 0-8.3-4.3 8 8 0 0 0-3.8 1.9c1.4 0 2.6.3 3.8.6m20.3-14.2c.5.8.7 1.5.7 2.3 0 .9-.2 1.8-.5 2.8l3 3.3 1.3-.2a12.7 12.7 0 0 1 4 .2 5.7 5.7 0 0 1 2.4 1.2 11 11 0 0 1 2.1 2.5 6.2 6.2 0 0 0 0-3.9 6.8 6.8 0 0 0-2.6-3.4 9.7 9.7 0 0 0-4-1.6h-.8a9.2 9.2 0 0 0 0-1.4 7.7 7.7 0 0 0-6.8-6.5 9.1 9.1 0 0 0-4.2.3 25 25 0 0 1 3.3 2 8 8 0 0 1 2.1 2.4"/></g></svg>